<svg xmlns="http://www.w3.org/2000/svg" xmlns:xlink="http://www.w3.org/1999/xlink" width="64" height="384" viewBox="0 0 64 384"><svg width="64" height="64" viewBox="0 0 64 64" id="angry" y="0"><circle fill="#EF5350" cx="32" cy="32" r="30"></circle><path fill="#302424" d="M40.988 49.665c-5.793-4.8-12.219-4.771-17.977 0-.693.573-1.318-.421-.849-1.339 1.755-3.435 5.299-6.492 9.837-6.492s8.081 3.058 9.836 6.492c.472.918-.153 1.912-.847 1.339z"></path><path fill="#FFF" d="M10.166 24.935c-1.548 4.728.646 9.975 5.27 12.128 4.615 2.154 10.039.467 12.668-3.746l-6.895-7.721-11.043-.661z"></path><path fill="#302424" d="M14.24 25.775a5.825 5.825 0 1 0 10.558 4.924c.862-1.851-9.694-6.775-10.558-4.924z"></path><path fill="#302424" d="M10.166 24.936c1.586-1.035 3.474-1.463 5.387-1.455 1.92.018 3.84.469 5.59 1.279 1.744.801 3.346 1.98 4.596 3.441 1.24 1.461 2.162 3.23 2.365 5.115-1.33-1.33-2.605-2.43-3.971-3.387a27.277 27.277 0 0 0-4.25-2.449 27.67 27.67 0 0 0-4.621-1.666c-1.615-.431-3.225-.697-5.096-.878z"></path><path fill="#FFF" d="M53.834 24.935c1.547 4.728-.646 9.975-5.27 12.128-4.615 2.154-10.039.467-12.668-3.746l6.895-7.721 11.043-.661z"></path><path fill="#302424" d="M49.76 25.775a5.825 5.825 0 1 1-10.558 4.924c-.862-1.851 9.694-6.775 10.558-4.924z"></path><path fill="#302424" d="M53.834 24.936c-1.586-1.035-3.473-1.463-5.387-1.455-1.92.018-3.84.469-5.59 1.279-1.744.801-3.346 1.98-4.596 3.441-1.24 1.461-2.162 3.23-2.365 5.115 1.33-1.33 2.605-2.43 3.971-3.387a27.277 27.277 0 0 1 4.25-2.449 27.67 27.67 0 0 1 4.621-1.666c1.616-.431 3.225-.697 5.096-.878z"></path></svg><svg width="64" height="64" viewBox="0 0 64 64" id="happy" y="64"><circle fill="#FFDD67" cx="32" cy="32" r="30"></circle><path fill="#664E27" d="M49.695 34.436c-.406-.52-1.127-.43-1.912-.43H16.215c-.785 0-1.505-.09-1.912.43C10.393 39.422 14.993 54 31.999 54c17.007 0 21.606-14.578 17.696-19.564z"></path><path fill="#4C3526" d="M33.842 41.741c-.578-.014-1.47.526-1.144 1.957.163.723 1.19 1.597 1.19 2.763 0 2.372-3.777 2.372-3.777 0 0-1.166 1.025-2.04 1.19-2.763.326-1.431-.565-1.971-1.145-1.957-1.571.041-4.149 1.736-4.149 4.604 0 3.224 2.684 5.836 5.992 5.836 3.307 0 5.99-2.612 5.99-5.836.001-2.867-2.577-4.563-4.147-4.604z"></path><path fill="#FF717F" d="M24.287 50.665c2.229.956 4.8 1.517 7.713 1.517 2.914 0 5.484-.561 7.713-1.517-2.15-1.032-4.711-1.663-7.713-1.663s-5.561.631-7.713 1.663z"></path><path fill="#FFF" d="M46.953 36H17.046c-2.053 0-2.053 4-.053 4h30.012c2.001 0 2.001-4-.052-4z"></path><circle fill="#664E27" cx="20.5" cy="23" r="5"></circle><circle fill="#664E27" cx="43.5" cy="23" r="5"></circle></svg><svg width="64" height="64" viewBox="0 0 64 64" id="like" y="128"><style>.a{fill:#ffdd67}.b{fill:#eba352}</style><title>Slice 1</title><g fill="none"><path d="M30.1 25.3s-4.2.8-.7-6.4c2.5-5.3 2.2-11.4 0-14.6-3.7-5.2-10.7-3.5-10-.5C21.9 14 16.2 17 13.3 23.5c-3 6.5-2.7 15.8-1.3 24 .8 5.2 3 11.5 11.1 11.5h11.1l-4.1-33.7z" class="a"></path><path d="M24.3 57.6c-8.1 0-9.8-6.4-10.7-11.5-1.4-8.3-1.6-14.8 1.1-21.5 2.8-7.3 5.9-7.5 5.9-21.8 0-.8.3-1.2.7-1.5-1.3.4-2.1 1.2-2.1 2.4 0 10.7-3 13.3-5.9 19.8-3 6.5-2.7 15.8-1.3 24 .8 5.2 3 11.5 11.1 11.5h11.1v-1.4h-9.9z" class="b"></path><path d="M43.9 33.7H30.1c-4.8 0-4.8-8.4 0-8.4h13.8c4.8 0 4.8 8.4 0 8.4z" class="a"></path><path d="M44.9 32.3H31.2c-3.3 0-4.3-3.8-3.2-6.3-2.6 2-1.9 7.7 2.1 7.7h13.8c1.5 0 2.6-.9 3.1-2.1-.5.4-1.2.7-2.1.7z" class="b"></path><path d="M45.4 42.2H28.8c-5.7 0-5.7-8.5 0-8.5h16.6c5.7 0 5.7 8.5 0 8.5z" class="a"></path><path d="M46.6 40.8H30.1c-3.9 0-5.1-3.9-3.8-6.4-3.1 2-2.2 7.8 2.5 7.8h16.5c1.9 0 3.2-.9 3.8-2.1-.6.4-1.5.7-2.5.7z" class="b"></path><path d="M43.8 50.6h-14c-4.8 0-4.8-8.4 0-8.4h14c4.9 0 4.9 8.4 0 8.4z" class="a"></path><path d="M44.9 49.2h-14c-3.3 0-4.3-3.8-3.2-6.3-2.6 2-1.9 7.7 2.1 7.7h14c1.6 0 2.6-.9 3.2-2.1-.6.4-1.3.7-2.1.7z" class="b"></path><path d="M42.3 59h-9c-5.2 0-5.2-8.4 0-8.4h9c5.2 0 5.2 8.4 0 8.4z" class="a"></path><path d="M43.5 57.6h-9.1c-3.5 0-4.6-3.8-3.4-6.3-2.8 2-2 7.7 2.3 7.7h9c1.7 0 2.8-.9 3.4-2.1-.6.5-1.3.7-2.2.7z" class="b"></path></g></svg><svg width="64" height="64" viewBox="0 0 64 64" id="love" y="192"><path fill="#FFDD67" d="M62 31.999C62 48.568 48.568 62 32.002 62 15.434 62 2 48.568 2 31.999 2 15.432 15.434 2 32.002 2 48.568 2 62 15.432 62 31.999z"></path><path fill="#F46767" d="M61.848 13.219c-.463-2.654-2.031-4.889-4.463-5.553-2.654-.727-5.082.316-7.438 2.703-1.32-3.631-3.338-6.326-6.52-7.709-3.259-1.421-6.427-.464-8.425 2.063-2.076 2.629-2.902 6.678-.68 11.975C36.404 21.657 45.734 31.709 46.004 32c.363-.227 10.754-6.721 13.299-9.908 2.49-3.121 3.006-6.228 2.545-8.873zM29.002 4.723c-1.996-2.527-5.166-3.484-8.426-2.063-3.184 1.383-5.201 4.078-6.523 7.709C11.697 7.983 9.27 6.94 6.615 7.667c-2.43.664-4 2.898-4.463 5.553-.459 2.645.057 5.752 2.545 8.873C7.244 25.28 17.637 31.774 18 32c.268-.291 9.6-10.344 11.682-15.303 2.222-5.296 1.396-9.345-.68-11.974z"></path><path fill="#664E27" d="M49 38.051c0-.803-.474-1.809-1.822-2.066-3.464-.662-8.582-1.344-15.179-1.344h-.001c-6.595 0-11.714.682-15.177 1.344-1.35.258-1.822 1.264-1.822 2.066 0 7.271 5.611 14.59 16.999 14.59h.001C43.388 52.641 49 45.322 49 38.051z"></path><path fill="#FFF" d="M44.69 38.283c-2.195-.367-6.838-1.012-12.69-1.012-5.854 0-10.496.645-12.691 1.012-1.294.219-1.373.744-1.283 1.486.054.443.137.975.265 1.553.142.641.262.936 1.266.816 1.921-.229 22.968-.229 24.888 0 1.004.119 1.123-.176 1.266-.816.127-.578.211-1.109.265-1.553.087-.742.008-1.267-1.286-1.486z"></path></svg><svg width="64" height="64" viewBox="0 0 64 64" id="sad" y="256"><g fill="#65B1EF"><ellipse cx="17.472" cy="59.895" rx="12.472" ry="1.5"></ellipse><ellipse cx="43.952" cy="60.197" rx="18.048" ry="1.803"></ellipse></g><circle fill="#FFDD67" cx="32" cy="32" r="30"></circle><path fill="#664E27" d="M44.736 46c-1.395-3.593-4.779-6-12.738-6-7.955 0-11.342 2.407-12.734 6-.744 1.92.32 5 .32 5 1.33 3.883 1.143 5 12.416 5 11.26 0 11.086-1.117 12.414-5 0 0 1.066-3.08.322-5z"></path><path fill="#FFF" d="M40.973 44.965c.072-.26-.004-.618-.17-.797 0 0-2.012-2.168-8.805-2.168-6.791 0-8.801 2.168-8.801 2.168-.164.179-.242.537-.172.797l.154.563c.073.259.307.472.524.472h16.592c.217 0 .453-.213.523-.473l.155-.562z"></path><path d="M44.48 60.469h6.834c8.201-9.914-1.543-20.023.898-29.797-2.279 0-4.557 2.545-6.834 2.545-3.149 9.488 7.304 17.338-.898 27.252zm-24.962 0h-6.834c-8.201-9.914 1.545-20.023-.896-29.797 2.277 0 4.555 2.545 6.834 2.545 3.148 9.488-7.306 17.338.896 27.252z" fill="#65B1EF"></path><path d="M40.667 18.303a14.233 14.233 0 0 0 11.374 4.141c.588-.062.909 2.108.196 2.181a16.41 16.41 0 0 1-13.125-4.778c-.499-.514 1.145-1.968 1.555-1.544zm-28.712 4.139a14.239 14.239 0 0 0 11.377-4.14c.408-.426 2.051 1.03 1.552 1.545a16.42 16.42 0 0 1-13.127 4.778c-.711-.074-.387-2.246.198-2.183z" fill="#917524"></path><path d="M35.914 30.275c4.213 7.953 12.695 7.951 16.91 0 .209-.4-.34-.58-1.01-1.035-4.225 3.32-11.059 3.014-14.891.002-.669.453-1.216.633-1.009 1.033zm-24.738 0c4.215 7.953 12.697 7.951 16.912 0 .207-.4-.34-.58-1.01-1.035-4.225 3.32-11.061 3.014-14.893.002-.669.453-1.216.633-1.009 1.033z" fill="#664E27"></path></svg><svg width="64" height="64" viewBox="0 0 64 64" id="wow" y="320"><circle fill="#FFDD67" cx="32" cy="32" r="30"></circle><circle fill="#FFF" cx="19" cy="29" r="11"></circle><path fill="#664E27" d="M24 29a5.001 5.001 0 1 1-10.002-.002A5.001 5.001 0 0 1 24 29z"></path><path fill="#FFF" d="M56 29c0 6.075-4.928 11-11 11-6.076 0-11-4.925-11-11 0-6.073 4.924-11 11-11 6.072 0 11 4.927 11 11z"></path><path fill="#664E27" d="M50 29a5.001 5.001 0 1 1-10.002-.002A5.001 5.001 0 0 1 50 29z"></path><path d="M50.203 15.777a14.232 14.232 0 0 0-11.693-3.133c-.578.113-1.088-2.021-.385-2.156a16.42 16.42 0 0 1 13.492 3.615c.541.469-.971 2.061-1.414 1.674zm-24.715-3.283c-4.168-.748-8.455.4-11.693 3.133-.443.389-1.953-1.205-1.412-1.674a16.422 16.422 0 0 1 13.492-3.615c.703.135.191 2.269-.387 2.156z" fill="#917524"></path><circle fill="#664E27" cx="32" cy="49" r="9"></circle><path fill="#FFF" d="M26 46c1.197-2.391 3.436-4 5.999-4 2.565 0 4.803 1.607 6.001 4H26z"></path></svg></svg>