<?xml version="1.0" encoding="utf-8"?>
<!-- Generator: Adobe Illustrator 16.0.0, SVG Export Plug-In . SVG Version: 6.00 Build 0)  -->
<!DOCTYPE svg PUBLIC "-//W3C//DTD SVG 1.1//EN" "http://www.w3.org/Graphics/SVG/1.1/DTD/svg11.dtd">
<svg version="1.1" id="Layer_1" xmlns="http://www.w3.org/2000/svg" xmlns:xlink="http://www.w3.org/1999/xlink" x="0px" y="0px"
	 width="190px" height="60px" viewBox="0 0 190 60" enable-background="new 0 0 190 60" xml:space="preserve">
<g>
	<g>
		<defs>
			<path id="SVGID_1_" d="M0.747,17.477c0,5.014,9.077,20.099,9.077,20.099s1.323-2.198,2.959-5.196
				c-2.544-4.661-5.842-11.25-6.101-14.512c-0.01-0.135-0.018-0.267-0.018-0.391c0-0.044,0.001-0.088,0.002-0.132l-5.521-2.53
				C0.886,15.657,0.747,16.55,0.747,17.477"/>
		</defs>
		<clipPath id="SVGID_2_">
			<use xlink:href="#SVGID_1_"  overflow="visible"/>
		</clipPath>
		
			<linearGradient id="SVGID_3_" gradientUnits="userSpaceOnUse" x1="-323.1401" y1="328.7598" x2="-322.7982" y2="328.7598" gradientTransform="matrix(39.9608 56.2411 56.2411 -39.9608 -5577.4365 31327.2578)">
			<stop  offset="0" style="stop-color:#EC2224"/>
			<stop  offset="1" style="stop-color:#F5907A"/>
		</linearGradient>
		<polygon clip-path="url(#SVGID_2_)" fill="url(#SVGID_3_)" points="8.745,9.132 23.529,29.939 4.785,43.258 -10,22.45 		"/>
	</g>
	<g>
		<defs>
			<path id="SVGID_4_" d="M1.144,14.814l5.521,2.53c0.003-0.188,0.013-0.373,0.027-0.557c0.293-1.462,1.583-2.564,3.131-2.564
				c0.199,0,0.393,0.021,0.582,0.055c1.083,0.2,1.973,0.943,2.377,1.938c0.151,0.371,0.236,0.776,0.236,1.201
				c0,0.292-0.09,0.684-0.236,1.13c-0.361,1.102-1.077,2.549-1.716,3.74c0.867,2.231,2.081,4.764,3.295,7.118
				c1.214-2.354,2.429-4.887,3.296-7.118c0.672-1.731,1.134-3.279,1.225-4.42c0.033-0.167,0.052-0.319,0.052-0.45
				c0-0.216-0.021-0.428-0.063-0.633c-0.066-0.876-0.255-1.717-0.553-2.506c-0.743-1.973-2.153-3.618-3.957-4.661
				c-0.499-0.289-1.027-0.531-1.58-0.722C11.854,8.576,10.86,8.4,9.823,8.4C5.737,8.4,2.282,11.101,1.144,14.814"/>
		</defs>
		<clipPath id="SVGID_5_">
			<use xlink:href="#SVGID_4_"  overflow="visible"/>
		</clipPath>
		
			<linearGradient id="SVGID_6_" gradientUnits="userSpaceOnUse" x1="-322.8599" y1="328.7168" x2="-322.5182" y2="328.7168" gradientTransform="matrix(32.3555 45.5373 45.5373 -32.3555 -4516.8447 25350.8633)">
			<stop  offset="0" style="stop-color:#EC2224"/>
			<stop  offset="1" style="stop-color:#AB1F5F"/>
		</linearGradient>
		<polygon clip-path="url(#SVGID_5_)" fill="url(#SVGID_6_)" points="12.966,0 28.854,22.359 7.113,37.807 -8.774,15.447 		"/>
	</g>
	<path fill="#596776" d="M33.481,15.561c0.921,0,1.705,0.134,2.352,0.402c0.646,0.268,1.172,0.623,1.578,1.062
		c0.406,0.44,0.702,0.942,0.887,1.506c0.186,0.564,0.279,1.149,0.279,1.754c0,0.591-0.093,1.173-0.279,1.744
		c-0.185,0.57-0.481,1.076-0.887,1.516c-0.406,0.44-0.932,0.794-1.578,1.062c-0.647,0.269-1.431,0.403-2.352,0.403h-3.404v5.282
		h-3.24V15.561H33.481z M32.594,22.493c0.372,0,0.729-0.027,1.073-0.083c0.343-0.055,0.646-0.161,0.908-0.32
		c0.261-0.158,0.471-0.381,0.629-0.67c0.159-0.289,0.237-0.667,0.237-1.135c0-0.467-0.079-0.846-0.237-1.135
		c-0.158-0.289-0.368-0.512-0.629-0.67c-0.262-0.159-0.564-0.266-0.908-0.32c-0.344-0.055-0.702-0.083-1.073-0.083h-2.517v4.415
		H32.594z"/>
	<path fill="#596776" d="M40.03,15.561h2.93v2.414h-2.93V15.561z M42.96,30.292h-2.93V19.625h2.93V30.292z"/>
	<path fill="#596776" d="M48.056,19.625v1.486h0.062c0.371-0.619,0.852-1.069,1.444-1.352c0.591-0.281,1.197-0.423,1.815-0.423
		c0.784,0,1.427,0.106,1.929,0.32c0.502,0.213,0.898,0.509,1.187,0.887c0.29,0.379,0.492,0.839,0.609,1.382
		c0.117,0.544,0.175,1.146,0.175,1.806v6.561h-2.929v-6.025c0-0.879-0.138-1.537-0.413-1.97c-0.275-0.433-0.764-0.65-1.465-0.65
		c-0.798,0-1.375,0.238-1.733,0.712c-0.357,0.474-0.536,1.255-0.536,2.342v5.591h-2.929V19.625H48.056z"/>
	<path fill="#596776" d="M70.194,15.561c0.922,0,1.706,0.134,2.352,0.402c0.647,0.268,1.172,0.623,1.579,1.062
		c0.405,0.44,0.701,0.942,0.887,1.506c0.186,0.564,0.278,1.149,0.278,1.754c0,0.591-0.093,1.173-0.278,1.744
		c-0.187,0.57-0.482,1.076-0.887,1.516c-0.407,0.44-0.932,0.794-1.579,1.062c-0.646,0.269-1.43,0.403-2.352,0.403H66.79v5.282
		h-3.239V15.561H70.194z M69.308,22.493c0.371,0,0.729-0.027,1.073-0.083c0.344-0.055,0.646-0.161,0.908-0.32
		c0.261-0.158,0.471-0.381,0.629-0.67c0.158-0.289,0.237-0.667,0.237-1.135c0-0.467-0.08-0.846-0.237-1.135
		c-0.159-0.289-0.368-0.512-0.629-0.67c-0.262-0.159-0.564-0.266-0.908-0.32c-0.344-0.055-0.702-0.083-1.073-0.083H66.79v4.415
		H69.308z"/>
	<path fill="#596776" d="M76.712,21.193c0.302-0.454,0.688-0.818,1.155-1.093c0.468-0.275,0.994-0.471,1.579-0.588
		c0.584-0.117,1.173-0.176,1.764-0.176c0.537,0,1.08,0.039,1.63,0.113c0.551,0.076,1.053,0.224,1.507,0.444s0.825,0.526,1.114,0.917
		c0.288,0.393,0.434,0.912,0.434,1.559v5.549c0,0.481,0.026,0.942,0.082,1.383c0.055,0.44,0.151,0.77,0.288,0.99h-2.971
		c-0.055-0.165-0.1-0.334-0.134-0.506c-0.035-0.172-0.059-0.347-0.072-0.525c-0.468,0.481-1.019,0.817-1.65,1.01
		c-0.633,0.193-1.279,0.29-1.939,0.29c-0.509,0-0.983-0.062-1.424-0.186c-0.44-0.125-0.825-0.316-1.155-0.578
		c-0.33-0.261-0.588-0.592-0.774-0.991c-0.186-0.398-0.279-0.872-0.279-1.423c0-0.604,0.106-1.104,0.32-1.496
		s0.488-0.704,0.826-0.938c0.337-0.234,0.722-0.409,1.155-0.526c0.434-0.117,0.87-0.21,1.311-0.279
		c0.44-0.068,0.874-0.124,1.3-0.165c0.426-0.042,0.805-0.103,1.135-0.186c0.33-0.082,0.591-0.203,0.784-0.361
		c0.191-0.158,0.281-0.389,0.268-0.691c0-0.316-0.052-0.567-0.154-0.752c-0.104-0.186-0.241-0.331-0.413-0.434
		c-0.172-0.103-0.371-0.171-0.598-0.206c-0.228-0.034-0.472-0.052-0.732-0.052c-0.578,0-1.032,0.124-1.362,0.372
		c-0.33,0.248-0.523,0.66-0.578,1.237h-2.93C76.237,22.218,76.409,21.647,76.712,21.193 M82.499,25.33
		c-0.187,0.062-0.386,0.113-0.599,0.155c-0.213,0.041-0.437,0.076-0.67,0.103c-0.234,0.027-0.468,0.062-0.702,0.103
		c-0.22,0.041-0.437,0.096-0.65,0.165c-0.213,0.068-0.399,0.161-0.557,0.278c-0.158,0.118-0.286,0.266-0.381,0.444
		c-0.096,0.18-0.145,0.406-0.145,0.681c0,0.262,0.048,0.482,0.145,0.66c0.096,0.18,0.227,0.32,0.392,0.423
		c0.165,0.104,0.357,0.176,0.578,0.218c0.22,0.04,0.447,0.061,0.681,0.061c0.577,0,1.023-0.095,1.341-0.288
		c0.316-0.192,0.55-0.423,0.701-0.691s0.244-0.54,0.278-0.815c0.034-0.274,0.052-0.495,0.052-0.659v-1.094
		C82.839,25.183,82.685,25.269,82.499,25.33"/>
	<path fill="#596776" d="M92.103,33.469c-0.563,0.371-1.348,0.558-2.352,0.558c-0.303,0-0.602-0.01-0.897-0.03
		c-0.296-0.021-0.595-0.045-0.897-0.072V31.51c0.275,0.027,0.558,0.055,0.846,0.082c0.289,0.027,0.578,0.034,0.866,0.021
		c0.385-0.041,0.671-0.193,0.856-0.453c0.187-0.262,0.279-0.552,0.279-0.867c0-0.233-0.041-0.454-0.124-0.66l-3.734-10.007h3.115
		l2.414,7.304h0.041l2.331-7.304h3.033l-4.456,11.987C93.106,32.479,92.667,33.098,92.103,33.469"/>
	<path fill="#596776" d="M101.718,19.625v1.444h0.041c0.386-0.55,0.85-0.977,1.393-1.279c0.544-0.302,1.166-0.454,1.867-0.454
		c0.675,0,1.289,0.131,1.847,0.393c0.558,0.261,0.979,0.722,1.27,1.382c0.315-0.468,0.746-0.881,1.289-1.238
		c0.543-0.358,1.187-0.537,1.93-0.537c0.564,0,1.086,0.069,1.568,0.207c0.48,0.138,0.893,0.358,1.237,0.66
		c0.344,0.303,0.612,0.698,0.805,1.187s0.288,1.077,0.288,1.764v7.139h-2.929v-6.045c0-0.357-0.014-0.694-0.041-1.011
		c-0.029-0.316-0.104-0.591-0.229-0.825c-0.123-0.233-0.306-0.419-0.546-0.557c-0.241-0.138-0.567-0.207-0.979-0.207
		s-0.747,0.08-1.002,0.238c-0.254,0.158-0.453,0.365-0.598,0.619s-0.24,0.543-0.289,0.867c-0.048,0.323-0.072,0.649-0.072,0.98
		v5.942h-2.93v-5.984c0-0.316-0.007-0.628-0.021-0.938s-0.072-0.595-0.175-0.857c-0.104-0.261-0.276-0.471-0.517-0.629
		s-0.594-0.238-1.062-0.238c-0.137,0-0.32,0.031-0.547,0.093c-0.227,0.062-0.446,0.179-0.66,0.351
		c-0.213,0.172-0.396,0.419-0.546,0.743c-0.152,0.324-0.229,0.747-0.229,1.27v6.189h-2.929V19.625H101.718z"/>
	<path fill="#596776" d="M120.443,27.733c0.439,0.427,1.072,0.641,1.897,0.641c0.592,0,1.101-0.148,1.527-0.444
		s0.688-0.608,0.784-0.938h2.579c-0.413,1.278-1.046,2.193-1.898,2.744c-0.853,0.55-1.885,0.825-3.095,0.825
		c-0.839,0-1.596-0.134-2.27-0.403c-0.675-0.268-1.245-0.649-1.713-1.145s-0.829-1.086-1.083-1.774
		c-0.255-0.688-0.383-1.444-0.383-2.27c0-0.797,0.132-1.54,0.393-2.229c0.262-0.688,0.633-1.282,1.115-1.784
		c0.48-0.502,1.055-0.898,1.722-1.187c0.667-0.289,1.406-0.433,2.219-0.433c0.907,0,1.698,0.175,2.373,0.526
		c0.673,0.351,1.227,0.822,1.66,1.414c0.435,0.591,0.746,1.266,0.939,2.021c0.192,0.757,0.261,1.547,0.206,2.373h-7.696
		C119.762,26.619,120.003,27.308,120.443,27.733 M123.755,22.122c-0.351-0.385-0.885-0.578-1.6-0.578
		c-0.467,0-0.855,0.079-1.165,0.237c-0.311,0.158-0.558,0.354-0.743,0.588c-0.186,0.234-0.316,0.481-0.392,0.742
		c-0.076,0.262-0.121,0.495-0.135,0.701h4.767C124.35,23.07,124.105,22.507,123.755,22.122"/>
	<path fill="#596776" d="M131.85,19.625v1.486h0.062c0.37-0.619,0.853-1.069,1.444-1.352c0.591-0.281,1.196-0.423,1.814-0.423
		c0.785,0,1.428,0.106,1.93,0.32c0.502,0.213,0.897,0.509,1.187,0.887c0.289,0.379,0.491,0.839,0.608,1.382
		c0.117,0.544,0.176,1.146,0.176,1.806v6.561h-2.93v-6.025c0-0.879-0.139-1.537-0.413-1.97c-0.275-0.433-0.764-0.65-1.466-0.65
		c-0.797,0-1.375,0.238-1.731,0.712c-0.358,0.474-0.537,1.255-0.537,2.342v5.591h-2.931V19.625H131.85z"/>
	<path fill="#596776" d="M147.159,19.625v1.96h-2.146v5.281c0,0.496,0.082,0.826,0.247,0.991c0.164,0.165,0.495,0.248,0.99,0.248
		c0.164,0,0.323-0.007,0.475-0.021c0.151-0.014,0.296-0.034,0.434-0.062v2.27c-0.248,0.042-0.523,0.069-0.825,0.083
		c-0.304,0.014-0.599,0.021-0.888,0.021c-0.454,0-0.884-0.032-1.289-0.093c-0.406-0.062-0.764-0.183-1.073-0.361
		s-0.554-0.434-0.732-0.764c-0.18-0.331-0.269-0.764-0.269-1.3v-6.293h-1.773v-1.96h1.773v-3.198h2.931v3.198H147.159z"/>
	<path fill="#596776" d="M151.027,27.641c0.131,0.228,0.299,0.413,0.505,0.558c0.207,0.144,0.444,0.25,0.712,0.319
		c0.269,0.069,0.547,0.103,0.836,0.103c0.207,0,0.423-0.023,0.649-0.072c0.228-0.048,0.434-0.123,0.619-0.227
		c0.186-0.103,0.341-0.24,0.464-0.412c0.124-0.172,0.187-0.389,0.187-0.65c0-0.439-0.293-0.771-0.877-0.99
		c-0.585-0.22-1.399-0.441-2.445-0.661c-0.426-0.096-0.842-0.209-1.248-0.34c-0.406-0.132-0.767-0.303-1.083-0.517
		c-0.317-0.213-0.571-0.48-0.764-0.805c-0.193-0.323-0.288-0.718-0.288-1.186c0-0.688,0.134-1.252,0.401-1.693
		c0.269-0.44,0.623-0.787,1.062-1.042c0.44-0.254,0.937-0.433,1.485-0.537c0.55-0.103,1.114-0.155,1.692-0.155
		s1.138,0.056,1.682,0.166c0.543,0.11,1.028,0.295,1.455,0.557c0.426,0.262,0.779,0.609,1.062,1.042s0.451,0.98,0.506,1.64h-2.785
		c-0.042-0.563-0.255-0.945-0.64-1.145c-0.386-0.199-0.839-0.299-1.361-0.299c-0.165,0-0.344,0.011-0.537,0.031
		c-0.192,0.021-0.368,0.066-0.526,0.134s-0.292,0.168-0.402,0.299c-0.109,0.131-0.165,0.306-0.165,0.526
		c0,0.261,0.097,0.475,0.29,0.639c0.192,0.165,0.443,0.299,0.752,0.402c0.311,0.104,0.664,0.196,1.063,0.279
		c0.398,0.083,0.804,0.172,1.217,0.269c0.427,0.096,0.843,0.213,1.248,0.351c0.406,0.138,0.767,0.319,1.084,0.547
		c0.315,0.227,0.57,0.509,0.763,0.846c0.193,0.337,0.289,0.753,0.289,1.248c0,0.702-0.141,1.29-0.423,1.766
		c-0.282,0.474-0.649,0.855-1.104,1.145c-0.453,0.288-0.973,0.491-1.558,0.608c-0.584,0.116-1.179,0.176-1.784,0.176
		c-0.619,0-1.225-0.062-1.816-0.186c-0.591-0.125-1.117-0.331-1.578-0.62c-0.46-0.288-0.839-0.67-1.135-1.145
		s-0.457-1.069-0.484-1.785h2.785C150.831,27.143,150.896,27.414,151.027,27.641"/>
</g>
</svg>
