<?xml version="1.0" encoding="UTF-8"?>
<svg width="32px" height="24px" viewBox="0 0 32 24" version="1.1" xmlns="http://www.w3.org/2000/svg" xmlns:xlink="http://www.w3.org/1999/xlink">
    <!-- Generator: Sketch 51.1 (57501) - http://www.bohemiancoding.com/sketch -->
    <title>card-amex</title>
    <desc>Created with Sketch.</desc>
    <defs></defs>
    <g id="card-amex" stroke="none" stroke-width="1" fill="none" fill-rule="evenodd">
        <rect id="Rectangle" fill-rule="nonzero" x="0" y="0" width="32" height="24"></rect>
        <g id="cc-amex" fill="#007BC1" fill-rule="nonzero">
            <path d="M31.9446367,11.9678571 C29.8463668,11.9571429 29.4975779,11.9196429 28.9273356,12.2357143 L28.9273356,11.9678571 C26.4193772,11.9678571 25.9653979,11.8767857 25.3342561,12.2464286 L25.3342561,11.9678571 L21.0048443,11.9678571 L21.0048443,12.2410714 C20.3737024,11.8928571 19.8200692,11.9678571 16.8138408,11.9678571 L16.8138408,12.2678571 C16.4650519,12.0696429 16.0110727,11.9678571 15.4685121,11.9678571 L12.2574394,11.9678571 C12.0636678,12.1714286 11.5653979,12.7017857 11.3882353,12.8892857 C10.6851211,12.1339286 10.8069204,12.2678571 10.5301038,11.9678571 L5.92941176,11.9678571 L5.92941176,16.9125 L10.4692042,16.9125 C10.6519031,16.725 11.183391,16.1678571 11.3605536,15.9803571 C12.0636678,16.7464286 11.9307958,16.6071429 12.2131488,16.9125 L14.9204152,16.9125 C14.9204152,16.125 14.9259516,16.4678571 14.9259516,15.6803571 C15.5626298,15.6910714 16.2712803,15.6696429 16.8249135,15.3482143 C16.8249135,16.0928571 16.8193772,16.2642857 16.8193772,16.9125 L19.0117647,16.9125 C19.0117647,15.9214286 19.017301,16.5160714 19.017301,15.5571429 C19.3605536,15.5571429 19.4435986,15.5571429 19.5377163,15.5625 C19.5432526,15.6321429 19.5377163,15.5625 19.5377163,16.9125 C27.9972318,16.9125 27.6152249,16.9714286 28.2131488,16.6714286 L28.2131488,16.9125 C30.1397924,16.9125 31.2470588,17.0303571 31.950173,16.5857143 L31.950173,21.4285714 C31.950173,22.8482143 30.7598616,24 29.2927336,24 L2.71280277,24 C1.24567474,24 0.0553633218,22.8482143 0.0553633218,21.4285714 L0.0553633218,10.5160714 L1.52802768,10.5160714 C1.76055363,9.975 1.64982699,10.2321429 1.88235294,9.69642857 L2.94532872,9.69642857 C3.17785467,10.2321429 3.06712803,9.975 3.29965398,10.5160714 L6.2283737,10.5160714 L6.2283737,9.90535714 C6.35017301,10.1732143 6.28927336,10.0392857 6.51072664,10.5160714 L8.14394464,10.5160714 C8.27681661,10.2214286 8.28788927,10.2053571 8.42629758,9.90535714 L8.42629758,10.5160714 L15.9280277,10.5160714 L15.9280277,9.17142857 C16.2823529,9.17142857 16.3709343,9.16607143 16.4705882,9.18214286 C16.4705882,9.18214286 16.4595156,9.76607143 16.4761246,10.5107143 L20.1577855,10.5107143 L20.1577855,10.0339286 C20.567474,10.35 21.1211073,10.5107143 21.8020761,10.5107143 L23.2858131,10.5107143 C23.5183391,9.96964286 23.4076125,10.2267857 23.6401384,9.69107143 L24.6920415,9.69107143 C25.0519031,10.4946429 24.7031142,9.71785714 25.0574394,10.5107143 L27.9806228,10.5107143 L27.9806228,9.3375 C28.63391,10.3928571 28.4124567,10.0285714 28.7114187,10.5107143 L31.0145329,10.5107143 L31.0145329,5.58214286 L28.8055363,5.58214286 L28.8055363,6.56785714 C28.1301038,5.48571429 28.4567474,6.01071429 28.1854671,5.58214286 L25.7882353,5.58214286 L25.7882353,6.68571429 C25.4449827,5.90357143 25.533564,6.10714286 25.3010381,5.58214286 L23.5072664,5.58214286 C23.4851211,5.58214286 23.3799308,5.59285714 23.3799308,5.56607143 L21.8519031,5.56607143 C21.1432526,5.56607143 20.5730104,5.7375 20.1522491,6.06428571 L20.1522491,5.56607143 L17.9432526,5.56607143 L17.9432526,5.85 C17.3453287,5.52321429 16.7972318,5.57678571 14.3778547,5.56607143 C14.3723183,5.56607143 13.7356401,5.56071429 13.7356401,5.56607143 L8.03321799,5.56607143 C7.89480969,5.89285714 7.6567474,6.44464286 7.33564014,7.17321429 C7.18062284,6.85178571 6.7266436,5.89821429 6.56608997,5.56607143 L4.01937716,5.56607143 L4.01937716,6.69642857 C3.60968858,5.76428571 3.75916955,6.10714286 3.52110727,5.56607143 L1.32318339,5.56607143 C1.1349481,5.98928571 0.564705882,7.28035714 0.0442906574,8.45357143 L0.0442906574,2.57142857 C0.0442906574,1.15178571 1.23460208,0 2.7017301,0 L29.2761246,0 C30.7432526,0 31.933564,1.15178571 31.933564,2.57142857 L31.933564,11.9678571 L31.9446367,11.9678571 Z M21.6138408,7.65 C21.5972318,7.66071429 21.5363322,7.76785714 21.5363322,8.05714286 C21.5363322,8.37857143 21.5861592,8.46964286 21.5972318,8.48035714 C21.6083045,8.48571429 21.6581315,8.50714286 21.7854671,8.50714286 L22.1896194,7.60178571 C22.1287197,7.60178571 22.0733564,7.59642857 22.0179931,7.59642857 C21.7079585,7.59642857 21.6304498,7.63392857 21.6138408,7.65 Z M20.5121107,14.6625 C21.0214533,14.8392857 21.1211073,15.1714286 21.1211073,15.6482143 L21.1155709,16.3875 L20.1965398,16.3875 L20.2020761,15.7714286 C20.2020761,15.1392857 19.9916955,15.0321429 19.382699,15.0321429 L18.4083045,15.0321429 L18.4027682,16.3875 L17.483737,16.3875 L17.4892734,12.675 L19.6705882,12.675 C20.3903114,12.675 21.1709343,12.7982143 21.1709343,13.6767857 C21.1653979,14.0839286 20.9384083,14.4964286 20.5121107,14.6625 Z M20.1633218,13.8375 C20.1633218,13.4946429 19.8532872,13.4410714 19.5709343,13.4410714 L18.4083045,13.4410714 L18.4083045,14.2767857 L19.5543253,14.2767857 C19.8643599,14.2767857 20.1633218,14.2071429 20.1633218,13.8375 Z M30.2228374,13.4571429 L31.8892734,13.4571429 L31.8892734,12.675 L30.0678201,12.675 C29.3591696,12.675 28.750173,13.0285714 28.750173,13.7839286 C28.750173,15.5517857 31.1141869,14.4696429 31.1141869,15.2517857 C31.1141869,15.525 30.8761246,15.5946429 30.6491349,15.5946429 L28.8775087,15.5946429 L28.8719723,16.3875 L30.6435986,16.3875 C31.1086505,16.3875 31.6179931,16.2910714 31.8892734,15.9107143 L31.8892734,14.5285714 C31.3079585,13.7892857 29.7134948,14.4589286 29.7134948,13.8053571 C29.7134948,13.4946429 29.9681661,13.4571429 30.2228374,13.4571429 Z M24.7307958,13.4410714 L24.7307958,12.675 L21.6747405,12.675 L21.6692042,16.3875 L24.7252595,16.3875 L24.7307958,15.6214286 L22.5937716,15.6053571 L22.5937716,14.8660714 L24.6920415,14.8660714 L24.6920415,14.1107143 L22.599308,14.1107143 L22.599308,13.4410714 L24.7307958,13.4410714 Z M27.067128,15.5892857 L25.2844291,15.5892857 L25.2788927,16.3821429 L27.0615917,16.3821429 C27.8809689,16.3821429 28.5121107,16.0821429 28.5121107,15.2035714 C28.5121107,13.425 26.1370242,14.6035714 26.1370242,13.7946429 C26.1370242,13.4946429 26.4083045,13.4517857 26.6463668,13.4517857 L28.3294118,13.4517857 L28.3294118,12.6696429 L26.4913495,12.6696429 C25.782699,12.6696429 25.1903114,13.0232143 25.1903114,13.7785714 C25.1903114,15.5464286 27.5543253,14.4482143 27.5543253,15.2464286 C27.5487889,15.5357143 27.2941176,15.5892857 27.067128,15.5892857 Z M22.7432526,7.0875 C21.7799308,7.07142857 20.9051903,6.86785714 20.9051903,8.14285714 C20.9051903,8.775 21.0602076,9.20892857 21.7965398,9.20892857 L22.2062284,9.20892857 L23.5072664,6.28928571 L24.8802768,6.28928571 L26.4249135,9.79285714 L26.4249135,6.28928571 L27.8256055,6.28928571 L29.4366782,8.86607143 L29.4366782,6.28928571 L30.3723183,6.28928571 L30.3723183,9.98571429 L29.0657439,9.98571429 L27.3384083,7.20535714 L27.3384083,9.98571429 L25.4726644,9.98571429 L25.1072664,9.16607143 L23.2083045,9.16607143 L22.8539792,9.98571429 L21.7910035,9.98571429 C20.5287197,9.98571429 19.9640138,9.35357143 19.9640138,8.16428571 C19.9640138,6.91607143 20.5453287,6.27321429 21.8463668,6.27321429 L22.7377163,6.27321429 L22.7377163,7.0875 L22.7432526,7.0875 Z M23.5349481,8.4 L24.7972318,8.4 L24.1771626,6.92142857 L23.5349481,8.4 Z M19.5155709,6.27857143 L18.5799308,6.27857143 L18.5799308,9.99107143 L19.5155709,9.99107143 L19.5155709,6.27857143 Z M17.4062284,8.27678571 C17.9321799,8.45357143 18.0152249,8.76964286 18.0152249,9.2625 L18.0152249,9.98571429 L17.0961938,9.98571429 C17.0795848,9.19285714 17.2955017,8.64107143 16.2768166,8.64107143 L15.2802768,8.64107143 L15.2802768,9.98571429 L14.3723183,9.98571429 L14.3723183,6.27321429 L16.5370242,6.28928571 C17.2733564,6.28928571 18.0539792,6.39642857 18.0539792,7.275 C18.0595156,7.70357143 17.815917,8.11607143 17.4062284,8.27678571 Z M17.0352941,7.45714286 C17.0352941,7.11428571 16.7252595,7.06071429 16.4429066,7.06071429 L15.2802768,7.06071429 L15.2802768,7.88035714 L16.4262976,7.88035714 C16.7418685,7.88035714 17.0352941,7.81071429 17.0352941,7.45714286 Z M13.7411765,7.06071429 L13.7411765,6.27857143 L10.6685121,6.27857143 L10.6685121,9.99107143 L13.7411765,9.99107143 L13.7411765,9.225 L11.5875433,9.225 L11.5875433,8.48571429 L13.6802768,8.48571429 L13.6802768,7.73035714 L11.5875433,7.73035714 L11.5875433,7.06071429 L13.7411765,7.06071429 Z M9.05743945,9.99107143 L9.05743945,7.0875 L7.72871972,9.99107143 L6.92041522,9.99107143 L5.5916955,7.0875 L5.5916955,9.99107143 L3.72041522,9.99107143 L3.36608997,9.17142857 L1.45605536,9.17142857 L1.1017301,9.99107143 L0.110726644,9.99107143 L1.7550173,6.27857143 L3.11141869,6.27857143 L4.66712803,9.79821429 L4.66712803,6.27857143 L6.16747405,6.27857143 L7.36885813,8.79642857 L8.45951557,6.27857143 L9.98754325,6.27857143 L9.98754325,9.99107143 L9.05743945,9.99107143 Z M3.03944637,8.4 L2.40276817,6.92142857 L1.78269896,8.4 L3.03944637,8.4 Z M17.0463668,13.8910714 C17.0463668,15.3857143 15.3633218,15.1392857 14.316955,15.1392857 L14.3114187,16.3875 L12.5287197,16.3875 L11.399308,15.1553571 L10.2200692,16.3875 L6.59930796,16.3875 L6.60484429,12.675 L10.2865052,12.675 L11.4214533,13.8964286 L12.584083,12.675 L15.5017301,12.675 C16.3653979,12.675 17.0463668,12.9642857 17.0463668,13.8910714 Z M10.8069204,14.5232143 L9.81591696,13.4410714 L7.50726644,13.4410714 L7.50726644,14.1107143 L9.51695502,14.1107143 L9.51695502,14.8660714 L7.50726644,14.8660714 L7.50726644,15.6053571 L9.7550173,15.6053571 L10.8069204,14.5232143 Z M13.3979239,13.0714286 L11.9972318,14.5392857 L13.3979239,16.0446429 L13.3979239,13.0714286 Z M16.0719723,13.8910714 C16.0719723,13.5642857 15.817301,13.4410714 15.5072664,13.4410714 L14.316955,13.4410714 L14.316955,14.3839286 L15.4906574,14.3839286 C15.817301,14.3839286 16.0719723,14.2339286 16.0719723,13.8910714 Z" id="Shape"></path>
        </g>
    </g>
</svg>