<?xml version="1.0" encoding="UTF-8"?>
<svg width="32px" height="24px" viewBox="0 0 32 24" version="1.1" xmlns="http://www.w3.org/2000/svg" xmlns:xlink="http://www.w3.org/1999/xlink">
    <!-- Generator: Sketch 51.1 (57501) - http://www.bohemiancoding.com/sketch -->
    <title>card-diners</title>
    <desc>Created with Sketch.</desc>
    <defs></defs>
    <g id="card-diners" stroke="none" stroke-width="1" fill="none" fill-rule="evenodd">
        <rect id="Rectangle" fill-rule="nonzero" x="0" y="0" width="32" height="24"></rect>
        <g id="cc-diners-club" fill="#2456A2" fill-rule="nonzero">
            <path d="M13.3166667,2.56607143 C7.93333333,2.56607143 3.55,6.77678571 3.55,11.9839286 C3.55,17.175 7.93333333,21.4017857 13.3166667,21.4017857 C18.7166667,21.4017857 23.0833333,17.175 23.0833333,11.9839286 C23.0833333,6.77678571 18.7166667,2.56607143 13.3166667,2.56607143 Z M11.1,17.5446429 C8.78333333,16.6928571 7.13333333,14.5232143 7.13333333,11.9839286 C7.13333333,9.44464286 8.78333333,7.275 11.1,6.40714286 L11.1,17.5446429 Z M15.5333333,17.5607143 L15.5333333,6.40714286 C17.85,7.275 19.5,9.44464286 19.5,11.9839286 C19.5,14.5232143 17.85,16.6928571 15.5333333,17.5607143 Z M29.3333333,0 L2.66666667,0 C1.19444444,0 0,1.15178571 0,2.57142857 L0,21.4285714 C0,22.8482143 1.19444444,24 2.66666667,24 L29.3333333,24 C30.8055556,24 32,22.8482143 32,21.4285714 L32,2.57142857 C32,1.15178571 30.8055556,0 29.3333333,0 Z M18.3166667,22.2857143 L13.3,22.2857143 C7.4,22.2857143 2.53333333,17.7053571 2.53333333,12.0964286 C2.53333333,5.95714286 7.4,1.71428571 13.3,1.71428571 L18.3166667,1.71428571 C24.15,1.71428571 29.4666667,5.95714286 29.4666667,12.0964286 C29.4666667,17.7053571 24.15,22.2857143 18.3166667,22.2857143 Z" id="Shape"></path>
        </g>
    </g>
</svg>