<?xml version="1.0" encoding="UTF-8"?>
<svg width="32px" height="24px" viewBox="0 0 32 24" version="1.1" xmlns="http://www.w3.org/2000/svg" xmlns:xlink="http://www.w3.org/1999/xlink">
    <!-- Generator: Sketch 51.1 (57501) - http://www.bohemiancoding.com/sketch -->
    <title>card-discover</title>
    <desc>Created with Sketch.</desc>
    <defs></defs>
    <g id="card-discover" stroke="none" stroke-width="1" fill="none" fill-rule="evenodd">
        <rect id="Rectangle" fill-rule="nonzero" x="0" y="0" width="32" height="24"></rect>
        <g id="cc-discover" fill="#EE7B1D" fill-rule="nonzero">
            <path d="M4.61111111,9.64821429 C4.61111111,10.0714286 4.43333333,10.4785714 4.11666667,10.7571429 C3.84444444,10.9928571 3.47222222,11.1 2.9,11.1 L2.66666667,11.1 L2.66666667,8.19642857 L2.9,8.19642857 C3.47222222,8.19642857 3.82777778,8.2875 4.11666667,8.55 C4.43333333,8.81785714 4.61111111,9.225 4.61111111,9.64821429 Z M28.0444444,8.14285714 L27.7722222,8.14285714 L27.7722222,9.47678571 L28.0333333,9.47678571 C28.6055556,9.47678571 28.9111111,9.24107143 28.9111111,8.79107143 C28.9111111,8.36785714 28.6055556,8.14285714 28.0444444,8.14285714 Z M32,2.57142857 L32,21.4285714 C32,22.8482143 30.8055556,24 29.3333333,24 L2.66666667,24 C1.19444444,24 0,22.8482143 0,21.4285714 L0,2.57142857 C0,1.15178571 1.19444444,0 2.66666667,0 L29.3333333,0 C30.8055556,0 32,1.15178571 32,2.57142857 Z M23.7777778,11.8392857 L26.2944444,11.8392857 L26.2944444,11.1 L24.6666667,11.1 L24.6666667,9.91071429 L26.2388889,9.91071429 L26.2388889,9.17142857 L24.6666667,9.17142857 L24.6666667,8.19642857 L26.2944444,8.19642857 L26.2944444,7.44642857 L23.7777778,7.44642857 L23.7777778,11.8392857 Z M18.9888889,7.44642857 L20.9333333,11.9571429 L21.4111111,11.9571429 L23.3833333,7.44642857 L22.4111111,7.44642857 L21.1777778,10.4035714 L19.9611111,7.44642857 L18.9888889,7.44642857 Z M14.3777778,9.675 C14.3777778,10.9928571 15.4833333,12.0642857 16.8555556,12.0642857 C18.2222222,12.0642857 19.3333333,10.9982143 19.3333333,9.675 C19.3333333,8.35714286 18.2277778,7.28571429 16.8555556,7.28571429 C15.4888889,7.28571429 14.3777778,8.35178571 14.3777778,9.675 Z M10.6,9.64821429 C10.6,11.3892857 12.4666667,12.4607143 14.1166667,11.6946429 L14.1166667,10.6767857 C13.0444444,11.7107143 11.5166667,10.9875 11.5166667,9.64821429 C11.5166667,8.37857143 13,7.55357143 14.1166667,8.63035714 L14.1166667,7.6125 C12.4388889,6.80892857 10.6,7.97678571 10.6,9.64821429 Z M8.71666667,11.1642857 C8.29444444,11.1642857 7.95,10.9660714 7.74444444,10.5857143 L7.17222222,11.1160714 C8.16111111,12.5142857 10.3166667,12.0910714 10.3166667,10.5107143 C10.3166667,9.80892857 10.0166667,9.49285714 9.00555556,9.13928571 C8.47222222,8.95714286 8.32222222,8.82321429 8.32222222,8.5875 C8.32222222,8.12142857 9.12777778,7.83214286 9.70555556,8.45357143 L10.1722222,7.875 C9.11111111,6.95892857 7.41111111,7.39821429 7.41111111,8.64107143 C7.41111111,9.24642857 7.7,9.5625 8.53333333,9.85714286 C9.96111111,10.3446429 9.35,11.1642857 8.71666667,11.1642857 Z M5.52777778,9.64821429 C5.52777778,8.35714286 4.52777778,7.44642857 3.07777778,7.44642857 L1.77777778,7.44642857 L1.77777778,11.8392857 L3.07777778,11.8392857 C4.79444444,11.8392857 5.52777778,10.6392857 5.52777778,9.64821429 Z M6.82777778,7.44642857 L5.93888889,7.44642857 L5.93888889,11.8392857 L6.82777778,11.8392857 L6.82777778,7.44642857 Z M30.2222222,13.7142857 C28.3722222,14.8285714 17.6444444,20.3785714 7.11111111,22.2857143 L29.3888889,22.2857143 C29.8444444,22.2857143 30.2222222,21.9214286 30.2222222,21.4821429 L30.2222222,13.7142857 Z M30.2222222,11.8392857 L28.7833333,9.99107143 C29.4555556,9.85714286 29.8222222,9.42321429 29.8222222,8.74821429 C29.8222222,7.22142857 28.1388889,7.44107143 26.8833333,7.44107143 L26.8833333,11.8339286 L27.7722222,11.8339286 L27.7722222,10.0767857 L27.8944444,10.0767857 L29.1277778,11.8339286 L30.2222222,11.8339286 L30.2222222,11.8392857 Z" id="Shape"></path>
        </g>
    </g>
</svg>