<?xml version="1.0" encoding="UTF-8"?>
<svg width="32px" height="24px" viewBox="0 0 32 24" version="1.1" xmlns="http://www.w3.org/2000/svg" xmlns:xlink="http://www.w3.org/1999/xlink">
    <!-- Generator: Sketch 51.1 (57501) - http://www.bohemiancoding.com/sketch -->
    <title>card-jcb</title>
    <desc>Created with Sketch.</desc>
    <defs></defs>
    <g id="card-jcb" stroke="none" stroke-width="1" fill="none" fill-rule="evenodd">
        <rect id="Rectangle" fill-rule="nonzero" x="0" y="0" width="32" height="24"></rect>
        <g id="cc-jcb" fill="#333333" fill-rule="nonzero">
            <path d="M23.9722222,11.3732143 L23.9722222,9.64285714 C26.2611111,9.64285714 26.1111111,9.65357143 26.1111111,9.65357143 C26.5166667,9.72321429 26.85,10.0446429 26.85,10.5107143 C26.85,10.9821429 26.5166667,11.2875 26.1111111,11.3571429 C26.0444444,11.3785714 25.9277778,11.3732143 23.9722222,11.3732143 Z M26.35,12.4553571 C26.1944444,12.4178571 26.1666667,12.4285714 23.9722222,12.4285714 L23.9722222,14.3035714 C26.1722222,14.3035714 26.1944444,14.3142857 26.35,14.2767857 C26.7666667,14.1964286 27.1,13.8482143 27.1,13.3660714 C27.1,12.9 26.7666667,12.5357143 26.35,12.4553571 Z M32,2.57142857 L32,21.4285714 C32,22.8482143 30.8055556,24 29.3333333,24 L2.66666667,24 C1.19444444,24 0,22.8482143 0,21.4285714 L0,2.57142857 C0,1.15178571 1.19444444,0 2.66666667,0 L29.3333333,0 C30.8055556,0 32,1.15178571 32,2.57142857 Z M10.1111111,8.5875 L6.94444444,8.5875 C6.94444444,12.1821429 7.53888889,14.4642857 4.95555556,14.4642857 C3.87222222,14.4642857 2.8,14.1589286 1.77777778,13.6714286 L1.77777778,15.1714286 C3.44444444,15.6160714 5.55555556,15.6160714 5.55555556,15.6160714 C10.9944444,15.6160714 10.1111111,13.0607143 10.1111111,8.5875 Z M20.0277778,8.82857143 C16.5055556,7.97142857 10.8611111,8.03035714 10.8611111,12.0053571 C10.8611111,16.1357143 16.8722222,15.9482143 20.0277778,15.1767857 L20.0277778,13.6607143 C17.3833333,14.9839286 14.0555556,14.8392857 14.0555556,12 C14.0555556,9.16071429 17.3777778,9.02142857 20.0277778,10.3285714 L20.0277778,8.82857143 Z M30.2222222,13.6339286 C30.2222222,12.6428571 29.3055556,12 28.1111111,11.9196429 L28.1111111,11.8767857 C29.1944444,11.7321429 29.7944444,11.0464286 29.7944444,10.2589286 C29.7944444,9.24107143 28.9222222,8.65178571 27.7388889,8.59821429 C27.7388889,8.59821429 28.0888889,8.58214286 21.0555556,8.58214286 L21.0555556,15.4125307 L27.8722222,15.4125 C29.2222222,15.4178571 30.2222222,14.7214286 30.2222222,13.6339286 Z" id="Shape"></path>
        </g>
    </g>
</svg>