<?xml version="1.0" encoding="UTF-8"?>
<svg width="32px" height="24px" viewBox="0 0 32 24" version="1.1" xmlns="http://www.w3.org/2000/svg" xmlns:xlink="http://www.w3.org/1999/xlink">
    <!-- Generator: Sketch 51.1 (57501) - http://www.bohemiancoding.com/sketch -->
    <title>card-master</title>
    <desc>Created with Sketch.</desc>
    <defs>
        <linearGradient x1="50%" y1="0%" x2="50%" y2="100%" id="linearGradient-1">
            <stop stop-color="#F90021" offset="0%"></stop>
            <stop stop-color="#E71E2D" offset="100%"></stop>
        </linearGradient>
    </defs>
    <g id="card-master" stroke="none" stroke-width="1" fill="none" fill-rule="evenodd">
        <rect id="Rectangle" fill-rule="nonzero" x="0" y="0" width="32" height="24"></rect>
        <g id="cc-mastercard" fill="url(#linearGradient-1)" fill-rule="nonzero">
            <path d="M26.8277778,20.2125 C26.8277778,20.5767857 26.5722222,20.8392857 26.2055556,20.8392857 C25.8277778,20.8392857 25.5833333,20.5607143 25.5833333,20.2125 C25.5833333,19.8642857 25.8277778,19.5857143 26.2055556,19.5857143 C26.5722222,19.5857143 26.8277778,19.8642857 26.8277778,20.2125 Z M9.56111111,19.5857143 C9.16666667,19.5857143 8.93888889,19.8642857 8.93888889,20.2125 C8.93888889,20.5607143 9.16666667,20.8392857 9.56111111,20.8392857 C9.92222222,20.8392857 10.1666667,20.5767857 10.1666667,20.2125 C10.1611111,19.8642857 9.92222222,19.5857143 9.56111111,19.5857143 Z M16.0888889,19.5696429 C15.7888889,19.5696429 15.6055556,19.7571429 15.5611111,20.0357143 L16.6222222,20.0357143 C16.5722222,19.7303571 16.3777778,19.5696429 16.0888889,19.5696429 Z M22.0777778,19.5857143 C21.7,19.5857143 21.4722222,19.8642857 21.4722222,20.2125 C21.4722222,20.5607143 21.7,20.8392857 22.0777778,20.8392857 C22.4555556,20.8392857 22.7,20.5767857 22.7,20.2125 C22.7,19.8642857 22.4555556,19.5857143 22.0777778,19.5857143 Z M27.9611111,20.9839286 C27.9611111,21 27.9777778,21.0107143 27.9777778,21.0428571 C27.9777778,21.0589286 27.9611111,21.0696429 27.9611111,21.1017857 C27.9444444,21.1178571 27.9444444,21.1285714 27.9333333,21.1446429 C27.9166667,21.1607143 27.9055556,21.1714286 27.8722222,21.1714286 C27.8555556,21.1875 27.8444444,21.1875 27.8111111,21.1875 C27.7944444,21.1875 27.7833333,21.1875 27.75,21.1714286 C27.7333333,21.1714286 27.7222222,21.1553571 27.7055556,21.1446429 C27.6888889,21.1285714 27.6777778,21.1178571 27.6777778,21.1017857 C27.6611111,21.075 27.6611111,21.0589286 27.6611111,21.0428571 C27.6611111,21.0160714 27.6611111,21 27.6777778,20.9839286 C27.6777778,20.9571429 27.6944444,20.9410714 27.7055556,20.925 C27.7222222,20.9089286 27.7333333,20.9089286 27.75,20.8982143 C27.7777778,20.8821429 27.7944444,20.8821429 27.8111111,20.8821429 C27.8388889,20.8821429 27.8555556,20.8821429 27.8722222,20.8982143 C27.9,20.9142857 27.9166667,20.9142857 27.9333333,20.925 C27.95,20.9357143 27.9444444,20.9571429 27.9611111,20.9839286 Z M27.8388889,21.0589286 C27.8666667,21.0589286 27.8666667,21.0428571 27.8833333,21.0428571 C27.9,21.0267857 27.9,21.0160714 27.9,21 C27.9,20.9839286 27.9,20.9732143 27.8833333,20.9571429 C27.8666667,20.9571429 27.8555556,20.9410714 27.8222222,20.9410714 L27.7333333,20.9410714 L27.7333333,21.1285714 L27.7777778,21.1285714 L27.7777778,21.0535714 L27.7944444,21.0535714 L27.8555556,21.1285714 L27.9,21.1285714 L27.8388889,21.0589286 Z M32,2.57142857 L32,21.4285714 C32,22.8482143 30.8055556,24 29.3333333,24 L2.66666667,24 C1.19444444,24 0,22.8482143 0,21.4285714 L0,2.57142857 C0,1.15178571 1.19444444,0 2.66666667,0 L29.3333333,0 C30.8055556,0 32,1.15178571 32,2.57142857 Z M3.55555556,10.05 C3.55555556,14.1482143 7.00555556,17.4696429 11.25,17.4696429 C12.7611111,17.4696429 14.2444444,17.0303571 15.5,16.2321429 C11.45,13.0553571 11.4777778,7.06071429 15.5,3.88392857 C14.2444444,3.08035714 12.7611111,2.64642857 11.25,2.64642857 C7.00555556,2.64107143 3.55555556,5.96785714 3.55555556,10.05 Z M16,15.8785714 C19.9166667,12.9321429 19.9,7.18928571 16,4.22678571 C12.1,7.18928571 12.0833333,12.9375 16,15.8785714 Z M8.09444444,19.9660714 C8.09444444,19.5 7.77777778,19.1946429 7.27777778,19.1785714 C7.02222222,19.1785714 6.75,19.2535714 6.56666667,19.5267857 C6.43333333,19.3071429 6.20555556,19.1785714 5.88888889,19.1785714 C5.67777778,19.1785714 5.46666667,19.2535714 5.3,19.4678571 L5.3,19.2321429 L4.84444444,19.2321429 L4.84444444,21.1982143 L5.3,21.1982143 C5.3,20.1857143 5.16111111,19.5803571 5.8,19.5803571 C6.36666667,19.5803571 6.25555556,20.1267857 6.25555556,21.1982143 L6.69444444,21.1982143 C6.69444444,20.2178571 6.55555556,19.5803571 7.19444444,19.5803571 C7.76111111,19.5803571 7.65,20.1160714 7.65,21.1982143 L8.10555556,21.1982143 L8.10555556,19.9660714 L8.09444444,19.9660714 Z M10.5888889,19.2321429 L10.15,19.2321429 L10.15,19.4678571 C10,19.2910714 9.78888889,19.1785714 9.5,19.1785714 C8.92777778,19.1785714 8.48888889,19.6178571 8.48888889,20.2125 C8.48888889,20.8125 8.92777778,21.2464286 9.5,21.2464286 C9.78888889,21.2464286 10,21.1446429 10.15,20.9571429 L10.15,21.2035714 L10.5888889,21.2035714 L10.5888889,19.2321429 Z M12.8388889,20.6035714 C12.8388889,19.8 11.5666667,20.1642857 11.5666667,19.7892857 C11.5666667,19.4839286 12.2277778,19.5321429 12.5944444,19.7303571 L12.7777778,19.3821429 C12.2555556,19.0553571 11.1,19.0607143 11.1,19.8214286 C11.1,20.5875 12.3722222,20.2660714 12.3722222,20.625 C12.3722222,20.9625 11.6222222,20.9357143 11.2222222,20.6678571 L11.0277778,21.0053571 C11.65,21.4125 12.8388889,21.3267857 12.8388889,20.6035714 Z M14.8055556,21.1017857 L14.6833333,20.7375 C14.4722222,20.85 14.0055556,20.9732143 14.0055556,20.5178571 L14.0055556,19.6285714 L14.7333333,19.6285714 L14.7333333,19.2321429 L14.0055556,19.2321429 L14.0055556,18.6321429 L13.55,18.6321429 L13.55,19.2321429 L13.1277778,19.2321429 L13.1277778,19.6232143 L13.55,19.6232143 L13.55,20.5178571 C13.55,21.4607143 14.5111111,21.2892857 14.8055556,21.1017857 Z M15.5444444,20.3839286 L17.0722222,20.3839286 C17.0722222,19.5160714 16.6611111,19.1732143 16.1055556,19.1732143 C15.5166667,19.1732143 15.0944444,19.5964286 15.0944444,20.2071429 C15.0944444,21.3053571 16.35,21.4875 16.9722222,20.9678571 L16.7611111,20.6464286 C16.3277778,20.9892857 15.6722222,20.9571429 15.5444444,20.3839286 Z M18.8277778,19.2321429 C18.5722222,19.125 18.1833333,19.1357143 17.9833333,19.4678571 L17.9833333,19.2321429 L17.5277778,19.2321429 L17.5277778,21.1982143 L17.9833333,21.1982143 L17.9833333,20.0892857 C17.9833333,19.4678571 18.5111111,19.5482143 18.6944444,19.6392857 L18.8277778,19.2321429 Z M19.4166667,20.2125 C19.4166667,19.6017857 20.0611111,19.4035714 20.5666667,19.7625 L20.7777778,19.4142857 C20.1333333,18.9267857 18.9611111,19.1946429 18.9611111,20.2178571 C18.9611111,21.2785714 20.2055556,21.4928571 20.7777778,21.0214286 L20.5666667,20.6732143 C20.0555556,21.0214286 19.4166667,20.8125 19.4166667,20.2125 Z M23.1222222,19.2321429 L22.6666667,19.2321429 L22.6666667,19.4678571 C22.2055556,18.8785714 21.0055556,19.2107143 21.0055556,20.2125 C21.0055556,21.2410714 22.25,21.5357143 22.6666667,20.9571429 L22.6666667,21.2035714 L23.1222222,21.2035714 L23.1222222,19.2321429 Z M24.9944444,19.2321429 C24.8611111,19.1678571 24.3833333,19.0767857 24.15,19.4678571 L24.15,19.2321429 L23.7111111,19.2321429 L23.7111111,21.1982143 L24.15,21.1982143 L24.15,20.0892857 C24.15,19.5 24.65,19.5375 24.8611111,19.6392857 L24.9944444,19.2321429 Z M27.2333333,18.4339286 L26.7944444,18.4339286 L26.7944444,19.4678571 C26.3388889,18.8839286 25.1333333,19.1946429 25.1333333,20.2125 C25.1333333,21.2517857 26.3833333,21.5303571 26.7944444,20.9571429 L26.7944444,21.2035714 L27.2333333,21.2035714 L27.2333333,18.4339286 Z M27.6555556,14.4107143 L27.6555556,14.6571429 L27.7,14.6571429 L27.7,14.4107143 L27.8055556,14.4107143 L27.8055556,14.3678571 L27.55,14.3678571 L27.55,14.4107143 L27.6555556,14.4107143 Z M28.0222222,21.0428571 C28.0222222,21.0160714 28.0222222,20.9839286 28.0055556,20.9571429 C27.9888889,20.9410714 27.9777778,20.9142857 27.9611111,20.8982143 C27.9444444,20.8821429 27.9166667,20.8714286 27.9,20.8553571 C27.8722222,20.8553571 27.8388889,20.8392857 27.8111111,20.8392857 C27.7944444,20.8392857 27.7666667,20.8553571 27.7333333,20.8553571 C27.7055556,20.8714286 27.6888889,20.8821429 27.6722222,20.8982143 C27.6444444,20.9142857 27.6277778,20.9410714 27.6277778,20.9571429 C27.6111111,20.9839286 27.6111111,21.0160714 27.6111111,21.0428571 C27.6111111,21.0589286 27.6111111,21.0857143 27.6277778,21.1178571 C27.6277778,21.1339286 27.6444444,21.1607143 27.6722222,21.1767857 C27.6888889,21.1928571 27.7,21.2035714 27.7333333,21.2196429 C27.7611111,21.2357143 27.7944444,21.2357143 27.8111111,21.2357143 C27.8388889,21.2357143 27.8722222,21.2357143 27.9,21.2196429 C27.9166667,21.2035714 27.9444444,21.1928571 27.9611111,21.1767857 C27.9777778,21.1607143 27.9888889,21.1339286 28.0055556,21.1178571 C28.0222222,21.0857143 28.0222222,21.0589286 28.0222222,21.0428571 Z M28.2,14.3625 L28.1222222,14.3625 L28.0333333,14.55 L27.9444444,14.3625 L27.8666667,14.3625 L27.8666667,14.6517857 L27.9111111,14.6517857 L27.9111111,14.4321429 L28,14.6196429 L28.0611111,14.6196429 L28.1388889,14.4321429 L28.1388889,14.6517857 L28.2,14.6517857 L28.2,14.3625 Z M28.4444444,10.05 C28.4444444,5.96785714 24.9944444,2.64107143 20.75,2.64107143 C19.2388889,2.64107143 17.7555556,3.08035714 16.5,3.87857143 C20.5055556,7.05535714 20.5666667,13.0660714 16.5,16.2267857 C17.7555556,17.0303571 19.25,17.4642857 20.75,17.4642857 C24.9944444,17.4696429 28.4444444,14.1482143 28.4444444,10.05 Z" id="Shape"></path>
        </g>
    </g>
</svg>