<?xml version="1.0" encoding="UTF-8"?>
<svg width="32px" height="24px" viewBox="0 0 32 24" version="1.1" xmlns="http://www.w3.org/2000/svg" xmlns:xlink="http://www.w3.org/1999/xlink">
    <!-- Generator: Sketch 51.1 (57501) - http://www.bohemiancoding.com/sketch -->
    <title>card-visa</title>
    <desc>Created with Sketch.</desc>
    <defs></defs>
    <g id="card-visa" stroke="none" stroke-width="1" fill="none" fill-rule="evenodd">
        <rect id="Rectangle" fill-rule="nonzero" x="0" y="0" width="32" height="24"></rect>
        <g id="cc-visa" fill="#0F1A64" fill-rule="nonzero">
            <path d="M26.1166667,10.6767857 C26.1166667,10.6767857 26.5388889,12.6696429 26.6333333,13.0875 L24.7777778,13.0875 C24.9611111,12.6107143 25.6666667,10.7571429 25.6666667,10.7571429 C25.6555556,10.7732143 25.85,10.2696429 25.9611111,9.95892857 L26.1166667,10.6767857 Z M32,2.57142857 L32,21.4285714 C32,22.8482143 30.8055556,24 29.3333333,24 L2.66666667,24 C1.19444444,24 0,22.8482143 0,21.4285714 L0,2.57142857 C0,1.15178571 1.19444444,0 2.66666667,0 L29.3333333,0 C30.8055556,0 32,1.15178571 32,2.57142857 Z M8.47222222,16.0285714 L11.9833333,7.71428571 L9.62222222,7.71428571 L7.43888889,13.3928571 L7.2,12.2410714 L6.42222222,8.41607143 C6.29444444,7.88571429 5.9,7.73571429 5.41111111,7.71428571 L1.81666667,7.71428571 L1.77777778,7.88035714 C2.65555556,8.09464286 3.43888889,8.40535714 4.12222222,8.79642857 L6.11111111,16.0285714 L8.47222222,16.0285714 Z M13.7166667,16.0392857 L15.1166667,7.71428571 L12.8833333,7.71428571 L11.4888889,16.0392857 L13.7166667,16.0392857 Z M21.4888889,13.3178571 C21.5,12.3696429 20.9,11.6464286 19.6166667,11.0517857 C18.8333333,10.6714286 18.3555556,10.4142857 18.3555556,10.0232143 C18.3666667,9.66964286 18.7611111,9.30535714 19.6388889,9.30535714 C20.3666667,9.28928571 20.9,9.45535714 21.3,9.62142857 L21.5,9.7125 L21.8055556,7.9125 C21.3666667,7.74642857 20.6666667,7.55892857 19.8055556,7.55892857 C17.6,7.55892857 16.05,8.69464286 16.0388889,10.3125 C16.0222222,11.5071429 17.15,12.1714286 17.9944444,12.5732143 C18.8555556,12.9803571 19.15,13.2482143 19.15,13.6071429 C19.1388889,14.1642857 18.45,14.4214286 17.8111111,14.4214286 C16.9222222,14.4214286 16.4444444,14.2875 15.7166667,13.9767857 L15.4222222,13.8428571 L15.1111111,15.7125 C15.6333333,15.9428571 16.6,16.1464286 17.6,16.1571429 C19.9444444,16.1625 21.4722222,15.0428571 21.4888889,13.3178571 Z M29.3333333,16.0392857 L27.5333333,7.71428571 L25.8055556,7.71428571 C25.2722222,7.71428571 24.8666667,7.86428571 24.6388889,8.40535714 L21.3222222,16.0392857 L23.6666667,16.0392857 C23.6666667,16.0392857 24.05,15.0107143 24.1333333,14.7910714 L27,14.7910714 C27.0666667,15.0857143 27.2666667,16.0392857 27.2666667,16.0392857 L29.3333333,16.0392857 Z" id="Shape"></path>
        </g>
    </g>
</svg>