<svg xmlns="http://www.w3.org/2000/svg" xmlns:xlink="http://www.w3.org/1999/xlink" width="36" height="168" viewBox="0 0 36 168"><svg width="36" height="28" viewBox="-2 -2 36 28" id="amex" y="0"><title>card-amex</title><g fill="none" fill-rule="evenodd"><path d="M0 0h32v24H0z"></path><path d="M31.945 11.968c-2.099-.01-2.447-.048-3.018.268v-.268c-2.508 0-2.962-.091-3.593.278v-.278h-4.33v.273c-.63-.348-1.184-.273-4.19-.273v.3c-.349-.198-.803-.3-1.345-.3h-3.212c-.193.203-.692.734-.869.921-.703-.755-.581-.621-.858-.921h-4.6v4.945h4.54c.182-.188.713-.745.89-.933.704.766.57.627.853.933h2.707c0-.788.006-.445.006-1.233.637.011 1.345-.01 1.899-.332 0 .745-.006.916-.006 1.565h2.193c0-.992.005-.397.005-1.356.344 0 .427 0 .52.005.006.07 0 0 0 1.35 8.46 0 8.078.06 8.676-.24v.24c1.927 0 3.034.118 3.737-.326v4.843c0 1.42-1.19 2.571-2.657 2.571H2.713C1.246 24 .055 22.848.055 21.429V10.516h1.473l.354-.82h1.063c.233.536.122.279.355.82h2.928v-.61c.122.267.061.133.283.61h1.633c.133-.295.144-.31.282-.61v.61h7.502V9.171c.354 0 .443-.005.543.011 0 0-.011.584.005 1.329h3.682v-.477c.41.316.963.477 1.644.477h1.484c.232-.541.122-.284.354-.82h1.052c.36.804.011.027.365.82h2.924V9.338c.653 1.055.431.69.73 1.173h2.304V5.582h-2.21v.986c-.675-1.082-.348-.557-.62-.986h-2.397v1.104c-.343-.782-.254-.579-.487-1.104h-1.794c-.022 0-.127.01-.127-.016h-1.528c-.709 0-1.279.171-1.7.498v-.498h-2.209v.284c-.598-.327-1.146-.273-3.565-.284-.006 0-.642-.005-.642 0H8.033c-.138.327-.376.879-.697 1.607-.155-.321-.61-1.275-.77-1.607H4.02v1.13l-.498-1.13H1.323L.044 8.454V2.57C.044 1.151 1.234 0 2.702 0h26.574c1.467 0 2.658 1.152 2.658 2.571v9.397h.01zM21.614 7.65c-.017.01-.078.118-.078.407 0 .322.05.413.061.423.011.006.061.027.188.027l.405-.905c-.061 0-.117-.006-.172-.006-.31 0-.388.038-.404.054zm-1.102 7.012c.51.177.61.51.61.986l-.006.74h-.92l.006-.617c0-.632-.21-.739-.82-.739h-.974l-.005 1.355h-.92l.006-3.712h2.182c.72 0 1.5.123 1.5 1.002-.006.407-.233.82-.659.986zm-.349-.825c0-.342-.31-.396-.592-.396h-1.163v.836h1.146c.31 0 .61-.07.61-.44zm10.06-.38h1.666v-.782h-1.821c-.709 0-1.318.354-1.318 1.109 0 1.768 2.364.686 2.364 1.468 0 .273-.238.343-.465.343h-1.771l-.006.792h1.772c.465 0 .974-.096 1.245-.476v-1.382c-.581-.74-2.176-.07-2.176-.724 0-.31.255-.348.51-.348zm-5.492-.016v-.766h-3.056l-.006 3.712h3.056l.006-.766-2.137-.016v-.739h2.098v-.755h-2.093v-.67h2.132zm2.336 2.148h-1.783l-.005.793h1.783c.819 0 1.45-.3 1.45-1.178 0-1.779-2.375-.6-2.375-1.41 0-.3.271-.342.51-.342h1.682v-.782h-1.838c-.708 0-1.3.353-1.3 1.109 0 1.767 2.363.67 2.363 1.467-.005.29-.26.343-.487.343zm-4.324-8.502c-.963-.016-1.838-.22-1.838 1.056 0 .632.155 1.066.892 1.066h.41l1.3-2.92h1.373l1.545 3.504V6.289h1.4l1.612 2.577V6.29h.935v3.697h-1.306l-1.728-2.78v2.78h-1.865l-.366-.82h-1.899l-.354.82h-1.063c-1.262 0-1.827-.632-1.827-1.822 0-1.248.581-1.89 1.882-1.89h.892v.814h.005zm.792 1.313h1.262l-.62-1.479-.642 1.479zm-4.02-2.121h-.935V9.99h.936V6.28zm-2.109 1.998c.526.177.61.493.61.986v.723h-.92c-.016-.793.2-1.345-.82-1.345h-.996v1.345h-.908V6.273l2.165.016c.736 0 1.517.107 1.517.986.006.429-.238.841-.648 1.002zm-.37-.82c0-.343-.31-.396-.593-.396H15.28v.82h1.146c.316 0 .61-.07.61-.424zm-3.295-.396v-.782H10.67V9.99h3.072v-.766h-2.153v-.74h2.092V7.73h-2.092v-.67h2.153zM9.057 9.99V7.088L7.73 9.99H6.92L5.592 7.088V9.99H3.72l-.354-.82h-1.91l-.354.82H.11L1.755 6.28h1.356l1.556 3.52v-3.52h1.5L7.37 8.796l1.09-2.517h1.529V9.99h-.93zM3.04 8.4l-.636-1.479-.62 1.479h1.256zm14.007 5.491c0 1.495-1.683 1.248-2.729 1.248l-.006 1.248H12.53l-1.13-1.232-1.179 1.232H6.6l.005-3.712h3.682l1.134 1.221 1.163-1.221h2.918c.863 0 1.544.29 1.544 1.216zm-6.24.632l-.99-1.082H7.507v.67h2.01v.755h-2.01v.74h2.248l1.052-1.083zm2.592-1.452l-1.4 1.468 1.4 1.506V13.07zm2.674.82c0-.327-.255-.45-.565-.45h-1.19v.943h1.174c.326 0 .581-.15.581-.493z" fill="#007BC1" fill-rule="nonzero"></path></g></svg><svg width="36" height="28" viewBox="-2 -2 36 28" id="diners" y="28"><title>card-diners</title><g fill="none" fill-rule="evenodd"><path d="M0 0h32v24H0z"></path><path d="M13.317 2.566c-5.384 0-9.767 4.21-9.767 9.418 0 5.191 4.383 9.418 9.767 9.418 5.4 0 9.766-4.227 9.766-9.418 0-5.207-4.366-9.418-9.766-9.418zM11.1 17.545c-2.317-.852-3.967-3.022-3.967-5.561 0-2.54 1.65-4.709 3.967-5.577v11.138zm4.433.016V6.407c2.317.868 3.967 3.038 3.967 5.577 0 2.54-1.65 4.709-3.967 5.577zM29.333 0H2.667C1.194 0 0 1.152 0 2.571V21.43C0 22.849 1.194 24 2.667 24h26.666C30.806 24 32 22.848 32 21.429V2.57C32 1.151 30.806 0 29.333 0zM18.317 22.286H13.3c-5.9 0-10.767-4.58-10.767-10.19C2.533 5.957 7.4 1.714 13.3 1.714h5.017c5.833 0 11.15 4.243 11.15 10.382 0 5.61-5.317 10.19-11.15 10.19z" fill="#2456A2" fill-rule="nonzero"></path></g></svg><svg width="36" height="28" viewBox="-2 -2 36 28" id="discover" y="56"><title>card-discover</title><g fill="none" fill-rule="evenodd"><path d="M0 0h32v24H0z"></path><path d="M4.611 9.648c0 .423-.178.83-.494 1.11-.273.235-.645.342-1.217.342h-.233V8.196H2.9c.572 0 .928.091 1.217.354.316.268.494.675.494 1.098zm23.433-1.505h-.272v1.334h.261c.573 0 .878-.236.878-.686 0-.423-.305-.648-.867-.648zM32 2.57V21.43C32 22.849 30.806 24 29.333 24H2.667C1.194 24 0 22.848 0 21.429V2.57C0 1.151 1.194 0 2.667 0h26.666C30.806 0 32 1.152 32 2.571zm-8.222 9.268h2.516V11.1h-1.627V9.91h1.572v-.739h-1.572v-.975h1.627v-.75h-2.516v4.393zm-4.79-4.393l1.945 4.511h.478l1.972-4.51h-.972l-1.233 2.957-1.217-2.958h-.972zm-4.61 2.229c0 1.318 1.105 2.39 2.478 2.39 1.366 0 2.477-1.067 2.477-2.39 0-1.318-1.105-2.39-2.477-2.39-1.367 0-2.478 1.067-2.478 2.39zM10.6 9.648c0 1.741 1.867 2.813 3.517 2.047v-1.018c-1.073 1.034-2.6.31-2.6-1.029 0-1.27 1.483-2.094 2.6-1.018V7.612c-1.678-.803-3.517.365-3.517 2.036zm-1.883 1.516c-.423 0-.767-.198-.973-.578l-.572.53c.99 1.398 3.145.975 3.145-.605 0-.702-.3-1.018-1.311-1.372-.534-.182-.684-.316-.684-.551 0-.467.806-.756 1.384-.134l.466-.579c-1.06-.916-2.76-.477-2.76.766 0 .605.288.921 1.121 1.216 1.428.488.817 1.307.184 1.307zm-3.19-1.516c0-1.29-1-2.202-2.45-2.202h-1.3v4.393h1.3c1.717 0 2.45-1.2 2.45-2.19zm1.3-2.202H5.94v4.393h.889V7.446zm23.395 6.268c-1.85 1.115-12.578 6.665-23.11 8.572h22.277c.455 0 .833-.365.833-.804v-7.768zm0-1.875l-1.439-1.848c.673-.134 1.04-.568 1.04-1.243 0-1.527-1.684-1.307-2.94-1.307v4.393h.89v-1.757h.121l1.234 1.757h1.094v.005z" fill="#EE7B1D" fill-rule="nonzero"></path></g></svg><svg width="36" height="28" viewBox="-2 -2 36 28" id="jcb" y="84"><title>card-jcb</title><g fill="none" fill-rule="evenodd"><path d="M0 0h32v24H0z"></path><path d="M23.972 11.373v-1.73c2.29 0 2.14.01 2.14.01.405.07.738.392.738.858 0 .471-.333.777-.739.846-.067.022-.183.016-2.139.016zm2.378 1.082c-.156-.037-.183-.026-2.378-.026v1.875c2.2 0 2.222.01 2.378-.027a.912.912 0 0 0 .75-.91.925.925 0 0 0-.75-.912zM32 2.571V21.43C32 22.849 30.806 24 29.333 24H2.667C1.194 24 0 22.848 0 21.429V2.57C0 1.151 1.194 0 2.667 0h26.666C30.806 0 32 1.152 32 2.571zM10.111 8.588H6.944c0 3.594.595 5.876-1.988 5.876-1.084 0-2.156-.305-3.178-.793v1.5c1.666.445 3.778.445 3.778.445 5.438 0 4.555-2.555 4.555-7.028zm9.917.24c-3.522-.857-9.167-.798-9.167 3.177 0 4.13 6.011 3.943 9.167 3.172V13.66c-2.645 1.323-5.972 1.178-5.972-1.661 0-2.84 3.322-2.979 5.972-1.671v-1.5zm10.194 4.806c0-.991-.916-1.634-2.11-1.714v-.043c1.082-.145 1.682-.83 1.682-1.618 0-1.018-.872-1.607-2.055-1.66 0 0 .35-.017-6.683-.017v6.83h6.816c1.35.006 2.35-.69 2.35-1.778z" fill="#333" fill-rule="nonzero"></path></g></svg><svg width="36" height="28" viewBox="-2 -2 36 28" id="master" y="112"><title>card-master</title><defs><linearGradient x1="50%" y1="0%" x2="50%" y2="100%" id="a"><stop stop-color="#F90021" offset="0%"></stop><stop stop-color="#E71E2D" offset="100%"></stop></linearGradient></defs><g fill="none" fill-rule="evenodd"><path d="M0 0h32v24H0z"></path><path d="M26.828 20.212c0 .365-.256.627-.622.627-.378 0-.623-.278-.623-.627 0-.348.245-.626.623-.626a.61.61 0 0 1 .622.627zM9.56 19.586c-.394 0-.622.278-.622.627 0 .348.228.626.622.626.361 0 .606-.262.606-.627-.006-.348-.245-.626-.606-.626zm6.528-.016c-.3 0-.483.187-.528.466h1.061c-.05-.306-.244-.466-.533-.466zm5.989.016c-.378 0-.606.278-.606.627 0 .348.228.626.606.626s.622-.262.622-.627c0-.348-.244-.626-.622-.626zm5.883 1.398c0 .016.017.027.017.059 0 .016-.017.027-.017.059-.017.016-.017.027-.028.043-.016.016-.027.026-.06.026-.017.017-.029.017-.062.017-.017 0-.028 0-.061-.017-.017 0-.028-.016-.044-.026-.017-.016-.028-.027-.028-.043-.017-.027-.017-.043-.017-.06 0-.026 0-.042.017-.058 0-.027.016-.043.028-.059.016-.016.027-.016.044-.027.028-.016.044-.016.061-.016.028 0 .045 0 .061.016.028.016.045.016.061.027.017.01.011.032.028.059zm-.122.075c.028 0 .028-.016.044-.016.017-.016.017-.027.017-.043 0-.016 0-.027-.017-.043-.016 0-.027-.016-.06-.016h-.09v.188h.045v-.075h.016l.062.075h.044l-.061-.07zM32 2.57V21.43C32 22.849 30.806 24 29.333 24H2.667C1.194 24 0 22.848 0 21.429V2.57C0 1.151 1.194 0 2.667 0h26.666C30.806 0 32 1.152 32 2.571zM3.556 10.05c0 4.098 3.45 7.42 7.694 7.42 1.511 0 2.994-.44 4.25-1.238-4.05-3.177-4.022-9.171 0-12.348a7.906 7.906 0 0 0-4.25-1.238c-4.244-.005-7.694 3.322-7.694 7.404zM16 15.879c3.917-2.947 3.9-8.69 0-11.652-3.9 2.962-3.917 8.71 0 11.652zm-7.906 4.087c0-.466-.316-.771-.816-.787-.256 0-.528.075-.711.348-.134-.22-.361-.348-.678-.348a.714.714 0 0 0-.589.289v-.236h-.456v1.966H5.3c0-1.012-.139-1.618.5-1.618.567 0 .456.547.456 1.618h.438c0-.98-.138-1.618.5-1.618.567 0 .456.536.456 1.618h.456v-1.232h-.012zm2.495-.734h-.439v.236a.813.813 0 0 0-.65-.29c-.572 0-1.011.44-1.011 1.034 0 .6.439 1.034 1.011 1.034.289 0 .5-.101.65-.289v.247h.439v-1.972zm2.25 1.372c0-.804-1.272-.44-1.272-.815 0-.305.66-.257 1.027-.059l.184-.348c-.522-.327-1.678-.321-1.678.44 0 .765 1.272.444 1.272.803 0 .337-.75.31-1.15.043l-.194.337c.622.408 1.81.322 1.81-.401zm1.967.498l-.123-.364c-.21.112-.677.235-.677-.22v-.89h.727v-.396h-.727v-.6h-.456v.6h-.422v.391h.422v.895c0 .943.961.771 1.256.584zm.738-.718h1.528c0-.868-.41-1.21-.966-1.21-.59 0-1.012.422-1.012 1.033 0 1.098 1.256 1.28 1.878.76l-.21-.32c-.434.342-1.09.31-1.218-.263zm3.284-1.152c-.256-.107-.645-.096-.845.236v-.236h-.455v1.966h.455V20.09c0-.621.528-.54.711-.45l.134-.407zm.589.98c0-.61.644-.808 1.15-.45l.21-.348c-.644-.487-1.816-.22-1.816.804 0 1.06 1.245 1.275 1.817.803l-.211-.348c-.511.348-1.15.14-1.15-.46zm3.705-.98h-.455v.236c-.461-.59-1.661-.257-1.661.744 0 1.03 1.244 1.324 1.66.745v.247h.456v-1.972zm1.872 0c-.133-.064-.61-.155-.844.236v-.236h-.439v1.966h.439V20.09c0-.589.5-.551.711-.45l.133-.407zm2.24-.798h-.44v1.034c-.455-.584-1.66-.273-1.66.744 0 1.04 1.25 1.318 1.66.745v.247h.44v-2.77zm.422-4.023v.246h.044v-.246h.106v-.043h-.256v.043h.106zm.366 6.632c0-.027 0-.06-.016-.086-.017-.016-.028-.043-.045-.059-.017-.016-.044-.027-.061-.043-.028 0-.061-.016-.089-.016-.017 0-.044.016-.078.016a.29.29 0 0 0-.06.043c-.029.016-.045.043-.045.06-.017.026-.017.058-.017.085 0 .016 0 .043.017.075 0 .016.016.043.044.059.017.016.028.027.061.043.028.016.061.016.078.016.028 0 .061 0 .089-.016.017-.016.044-.027.061-.043.017-.016.028-.043.045-.06a.151.151 0 0 0 .016-.074zm.178-6.68h-.078l-.089.187-.089-.188h-.077v.29h.044v-.22l.089.188h.061l.078-.188v.22h.061v-.29zm.244-4.313c0-4.082-3.45-7.409-7.694-7.409-1.511 0-2.994.44-4.25 1.238 4.006 3.176 4.067 9.187 0 12.348a7.934 7.934 0 0 0 4.25 1.237c4.244.006 7.694-3.316 7.694-7.414z" fill="url(#a)" fill-rule="nonzero"></path></g></svg><svg width="36" height="28" viewBox="-2 -2 36 28" id="visa" y="140"><title>card-visa</title><g fill="none" fill-rule="evenodd"><path d="M0 0h32v24H0z"></path><path d="M26.117 10.677s.422 1.993.516 2.41h-1.855c.183-.476.889-2.33.889-2.33-.011.016.183-.487.294-.798l.156.718zM32 2.57V21.43C32 22.849 30.806 24 29.333 24H2.667C1.194 24 0 22.848 0 21.429V2.57C0 1.151 1.194 0 2.667 0h26.666C30.806 0 32 1.152 32 2.571zM8.472 16.03l3.511-8.315h-2.36l-2.184 5.679L7.2 12.24l-.778-3.825c-.128-.53-.522-.68-1.01-.702H1.816l-.04.166a9.004 9.004 0 0 1 2.345.916l1.99 7.233h2.36zm5.245.01l1.4-8.325h-2.234L11.49 16.04h2.228zm7.772-2.721c.011-.948-.589-1.672-1.872-2.266-.784-.38-1.261-.638-1.261-1.029.01-.353.405-.718 1.283-.718a3.95 3.95 0 0 1 1.661.316l.2.091.306-1.8a5.729 5.729 0 0 0-2-.353c-2.206 0-3.756 1.136-3.767 2.753-.017 1.195 1.111 1.86 1.955 2.261.862.407 1.156.675 1.156 1.034-.011.557-.7.814-1.339.814-.889 0-1.367-.133-2.094-.444l-.295-.134-.31 1.87c.521.23 1.488.433 2.488.444 2.344.006 3.872-1.114 3.889-2.84zm7.844 2.721l-1.8-8.325h-1.727c-.534 0-.94.15-1.167.691l-3.317 7.634h2.345l.466-1.248H27c.067.295.267 1.248.267 1.248h2.066z" fill="#0F1A64" fill-rule="nonzero"></path></g></svg></svg>