<?xml version="1.0" encoding="UTF-8"?>
<svg width="448px" height="332px" viewBox="0 0 448 332" version="1.1" xmlns="http://www.w3.org/2000/svg" xmlns:xlink="http://www.w3.org/1999/xlink">
    <!-- Generator: Sketch 61 (89581) - https://sketch.com -->
    <title>补充内容</title>
    <desc>Created with Sketch.</desc>
    <defs>
        <linearGradient x1="100%" y1="50%" x2="0%" y2="50%" id="linearGradient-1">
            <stop stop-color="#00DBB0" stop-opacity="0" offset="0%"></stop>
            <stop stop-color="#00B578" stop-opacity="0.08" offset="100%"></stop>
        </linearGradient>
        <linearGradient x1="50%" y1="165.552043%" x2="50%" y2="-57.8555461%" id="linearGradient-2">
            <stop stop-color="#00DBB0" stop-opacity="0" offset="0%"></stop>
            <stop stop-color="#00DBB0" offset="100%"></stop>
        </linearGradient>
        <linearGradient x1="100%" y1="50%" x2="0.176836993%" y2="50%" id="linearGradient-3">
            <stop stop-color="#FFC242" stop-opacity="0" offset="0%"></stop>
            <stop stop-color="#FF8F1F" stop-opacity="0.08" offset="100%"></stop>
        </linearGradient>
        <linearGradient x1="50%" y1="124.219181%" x2="50%" y2="-27.9660533%" id="linearGradient-4">
            <stop stop-color="#FFC242" stop-opacity="0" offset="0%"></stop>
            <stop stop-color="#FFC242" offset="100%"></stop>
        </linearGradient>
        <linearGradient x1="99.4958826%" y1="50%" x2="0%" y2="50%" id="linearGradient-5">
            <stop stop-color="#FF6945" stop-opacity="0" offset="0%"></stop>
            <stop stop-color="#FF6945" stop-opacity="0.08" offset="100%"></stop>
        </linearGradient>
        <linearGradient x1="50%" y1="127.620584%" x2="50%" y2="-45.0043864%" id="linearGradient-6">
            <stop stop-color="#FF6945" stop-opacity="0" offset="0%"></stop>
            <stop stop-color="#FF6945" offset="100%"></stop>
        </linearGradient>
        <linearGradient x1="1.63904139%" y1="50%" x2="100%" y2="50%" id="linearGradient-7">
            <stop stop-color="#1677FF" stop-opacity="0.08" offset="0%"></stop>
            <stop stop-color="#31AFFF" stop-opacity="0" offset="100%"></stop>
        </linearGradient>
        <linearGradient x1="50%" y1="125.959454%" x2="50%" y2="-58.0695535%" id="linearGradient-8">
            <stop stop-color="#31AFFF" stop-opacity="0" offset="0%"></stop>
            <stop stop-color="#31AFFF" offset="100%"></stop>
            <stop stop-color="#31AFFF" offset="100%"></stop>
        </linearGradient>
    </defs>
    <g id="页面-1" stroke="none" stroke-width="1" fill="none" fill-rule="evenodd">
        <g id="注册模块/P1" transform="translate(-421.000000, -368.000000)">
            <g id="补充内容" transform="translate(420.000000, 368.000000)">
                <g id="编组-16" transform="translate(131.638070, 83.628891)">
                    <polygon id="矩形备份-19" fill="url(#linearGradient-1)" points="30.9736634 -1.43052725e-13 317.48005 -2.09082433e-13 317.48005 80.5315249 -5.63957859e-13 80.5315249"></polygon>
                    <polygon id="矩形备份-19" fill="#00B578" opacity="0.2" points="30.9736634 -5.722109e-13 35.0182237 0 4.73098654 80.5315249 -6.73998416e-13 80.5315249"></polygon>
                    <g id="编组-5" transform="translate(56.719086, 18.402182)">
                        <rect id="矩形备份-10" fill="#00B578" x="123.192022" y="21.6337408" width="13.8455941" height="1.73069926"></rect>
                        <text id="把你能想到的东西都外包出去" font-family="MicrosoftYaHei, Microsoft YaHei" font-size="10.3841956" font-weight="normal" line-spacing="13.9381485" fill="#999999">
                            <tspan x="0" y="38.6911882">把你能想到的东西都外包出去</tspan>
                        </text>
                        <text id="服务全" fill="#00B578" font-family="MicrosoftYaHei-Bold, Microsoft YaHei" font-size="13.8455941" font-weight="bold">
                            <tspan x="90.9536522" y="15">服务全</tspan>
                        </text>
                    </g>
                    <path d="M263.418367,48.3678553 C262.347872,49.9901089 261.129258,51.5324788 259.782723,52.9703855 C259.553812,53.2223264 258.08609,54.414437 256.941535,53.5111367 C255.790248,52.6016915 256.813614,51.2067991 256.941535,50.9425684 C258.348664,47.9622919 259.755793,45.805432 259.755793,40.6621506 C259.755793,35.5188693 256.941535,30.3817328 251.306288,25.2445963 C251.198565,25.877521 251.043713,26.4981559 250.828268,27.1065011 C248.922921,33.257546 241.920941,36.827733 235.181535,35.0948711 C234.41401,34.8982343 233.666684,34.6340036 232.946288,34.302179 C230.771634,33.4357481 226.657971,33.5094869 224.025496,35.5250142 C222.005694,37.0673841 220.329258,39.3778665 220.329258,41.9464347 C220.329258,49.6582843 225.27104,51.3850012 223.23104,53.5111367 C221.837377,54.3591329 220.665892,53.369804 220.416783,53.0932835 C219.056783,51.643087 217.764109,50.0638477 216.666684,48.3740002 L211.886486,48.3740002 C210.331238,48.3740002 209.072228,47.2249039 209.072228,45.805432 L209.072228,35.5188693 C209.072228,34.0993973 210.331238,32.950301 211.886486,32.950301 L213.798565,32.950301 C215.791436,22.8419404 223.661931,14.1776313 236.036585,12.6352614 C237.073416,12.4386246 238.130446,12.3587409 239.187476,12.4017552 C239.476981,12.3894654 239.759753,12.3894654 240.049258,12.3894654 C254.726486,12.3894654 264.091634,21.7850176 266.293218,32.9441561 L268.205298,32.9441561 C269.760545,32.9441561 271.019555,34.0932524 271.019555,35.5127244 L271.019555,45.7931422 C271.019555,47.1450202 269.868268,48.2695369 268.38708,48.3555655 C265.222723,58.0337831 256.402921,65.2909101 245.529654,67.1712495 C245.145892,68.2158825 244.068664,68.9164012 242.863515,68.9164012 L237.235001,68.9164012 C235.679753,68.9164012 234.420743,67.7611599 234.420743,66.3478329 C234.420743,64.928361 235.679753,63.7792647 237.235001,63.7792647 L242.863515,63.7792647 C243.7051,63.7792647 244.459159,64.1172342 244.977575,64.6518405 C254.524506,63.0172971 262.354605,56.7863684 265.431436,48.3678553 L263.418367,48.3678553 L263.418367,48.3678553 Z M231.37623,54.8360146 C230.734337,54.4448253 230.560491,53.6502219 230.98842,53.0634379 C231.416348,52.4766539 232.285579,52.3177332 232.927472,52.7089226 C235.508419,54.2797923 238.035874,55.0499463 240.54327,55.0499463 C243.050666,55.0499463 245.578121,54.2797923 248.159067,52.7089226 C248.787588,52.2993962 249.663505,52.4338676 250.111493,53.0145393 C250.559481,53.5890986 250.41238,54.3898143 249.777173,54.7993406 C249.757114,54.8115653 249.730369,54.8299023 249.71031,54.842127 C246.701434,56.6819393 243.632382,57.611014 240.549956,57.611014 C237.467531,57.611014 234.391792,56.675827 231.37623,54.8360146 Z" id="形状" fill="url(#linearGradient-2)"></path>
                </g>
                <g id="编组-15" transform="translate(69.690743, 250.886674)">
                    <polygon id="矩形备份-19" fill="url(#linearGradient-3)" points="30.9736634 -5.722109e-13 379.427377 -2.09082433e-13 379.427377 80.5315249 -6.73998416e-13 80.5315249"></polygon>
                    <polygon id="矩形备份-19" fill="#FF8F1F" opacity="0.2" points="30.9736634 -5.722109e-13 35.8835733 -2.8610545e-13 4.73098654 80.5315249 -6.73998416e-13 80.5315249"></polygon>
                    <g id="编组-7" transform="translate(118.666413, 9.884425)">
                        <rect id="矩形备份-12" fill="#FF8F1F" x="123.192022" y="21.6337408" width="13.8455941" height="1.73069926"></rect>
                        <text id="只有当你对服务商的工作满意-时才付给他们" font-family="MicrosoftYaHei, Microsoft YaHei" font-size="10.3841956" font-weight="normal" line-spacing="15.4868317" fill="#AAAAAA">
                            <tspan x="0.00545743372" y="37.8258386">只有当你对服务商的工作满意</tspan>
                            <tspan x="72.6948265" y="53.3126703">时才付给他们</tspan>
                        </text>
                        <text id="交易安全" fill="#FF8F1F" font-family="MicrosoftYaHei-Bold, Microsoft YaHei" font-size="13.8455941" font-weight="bold">
                            <tspan x="78.2739477" y="15">交易安全</tspan>
                        </text>
                    </g>
                    <path d="M297.473166,46.259078 L289.483505,38.3478943 L286.287034,41.5129692 L297.474649,52.5906266 L300.67112,49.4256216 L300.669637,49.4241529 L318.784035,31.4876791 L315.587564,28.3226041 L297.473166,46.259078 Z M301.993219,10.0664406 L329.869516,19.594187 L325.349039,53.3907251 C324.065859,62.4412799 310.128593,67.5863188 301.993219,71.2394259 C293.857844,67.5863188 279.920507,62.4412799 278.637398,53.3907251 L274.116921,19.594187 L301.993219,10.0664406 Z" id="形状" fill="url(#linearGradient-4)"></path>
                </g>
                <g id="编组-17">
                    <polygon id="矩形备份-19" fill="url(#linearGradient-5)" transform="translate(139.381485, 40.265762) scale(-1, 1) translate(-139.381485, -40.265762) " points="24.7789308 -1.43052725e-13 278.762971 -1.05892545e-13 278.762971 80.5315249 -1.48554753e-12 80.5315249"></polygon>
                    <polygon id="矩形备份-19" fill="#FF6945" opacity="0.2" transform="translate(264.566432, 40.265762) scale(-1, 1) translate(-264.566432, -40.265762) " points="275.00226 -5.722109e-13 279.04682 0 253.951681 80.5315249 250.086044 80.5315249"></polygon>
                    <g id="编组-6" transform="translate(113.053872, 10.658766)">
                        <rect id="矩形" fill="#FF6010" x="0" y="21.6337408" width="13.8455941" height="1.73069926"></rect>
                        <text id="在线找人帮你实现需求-所需花费远低于正式" font-family="MicrosoftYaHei, Microsoft YaHei" font-size="10.3841956" font-weight="normal" line-spacing="13.9381485" fill="#999999">
                            <tspan x="0" y="39.5565379">在线找人帮你实现需求</tspan>
                            <tspan x="0" y="53.4946864">所需花费远低于正式招聘他们</tspan>
                        </text>
                        <text id="成本低" fill="#FF6010" font-family="MicrosoftYaHei-Bold, Microsoft YaHei" font-size="13.8455941" font-weight="bold">
                            <tspan x="0" y="15">成本低</tspan>
                        </text>
                    </g>
                    <g id="编组-13" transform="translate(38.717079, 9.292099)" fill="url(#linearGradient-6)">
                        <path d="M30.7829207,0.707900968 C47.6276056,0.707900968 61.2829207,14.3632161 61.2829207,31.207901 C61.2829207,48.0525858 47.6276056,61.707901 30.7829207,61.707901 C13.9382358,61.707901 0.282920702,48.0525858 0.282920702,31.207901 C0.282920702,14.3632161 13.9382358,0.707900968 30.7829207,0.707900968 Z M39.5846524,15.707901 L30.680191,26.0400438 L21.7720607,15.707901 L18.7231907,18.1971867 L26.706754,27.457901 L18.400326,27.457901 L18.400326,31.332901 L28.7356651,31.332901 L28.7356651,35.5971867 L18.2829207,35.5971867 L18.2829207,39.4721867 L28.7356651,39.4721867 L28.7356651,47.707901 L32.712771,47.707901 L32.712771,39.4686153 L43.1655154,39.4686153 L43.1655154,35.5971867 L32.712771,35.5971867 L32.712771,31.3293295 L43.2829207,31.3293295 L43.2829207,27.457901 L34.6499592,27.457901 L42.6335224,18.1971867 L39.5846524,15.707901 Z" id="形状结合"></path>
                    </g>
                </g>
                <g id="编组-14" transform="translate(0.000000, 167.012479)">
                    <polygon id="矩形备份-19" fill="url(#linearGradient-7)" transform="translate(170.355149, 40.265762) scale(-1, 1) translate(-170.355149, -40.265762) " points="30.9736634 5.722109e-13 340.710298 3.46643876e-13 340.710298 80.5315249 0 80.5315249"></polygon>
                    <polygon id="矩形备份-19" fill="#1677FF" opacity="0.2" transform="translate(322.977532, 40.265762) scale(-1, 1) translate(-322.977532, -40.265762) " points="336.442083 -5.722109e-13 340.486644 0 309.334057 80.5315249 305.46842 80.5315249"></polygon>
                    <g id="编组-8" transform="translate(113.053872, 10.658766)">
                        <rect id="矩形备份-11" fill="#1677FF" x="0" y="21.8635805" width="13.8455941" height="1.73069926"></rect>
                        <text id="跨境电商的各大牛伽与服务商-现在都为你准" font-family="MicrosoftYaHei, Microsoft YaHei" font-size="10.3841956" font-weight="normal" line-spacing="13.9381485" fill="#999999">
                            <tspan x="0" y="39.7416467">跨境电商的各大牛伽与服务商</tspan>
                            <tspan x="0" y="53.6797953">现在都为你准备好了</tspan>
                        </text>
                        <text id="牛伽多" fill="#1677FF" font-family="MicrosoftYaHei-Bold, Microsoft YaHei" font-size="13.8455941" font-weight="bold">
                            <tspan x="0" y="15">牛伽多</tspan>
                        </text>
                    </g>
                    <path d="M47.8694719,10.8407822 L47.8694719,21.6645672 L45.6861536,21.6645672 L45.6861536,30.4597261 L47.8694719,30.4597261 L47.8694719,36.320875 L45.6861536,36.320875 L45.6861536,45.1160339 L47.8694719,45.1160339 L47.8694719,50.9771828 L45.6861536,50.9771828 L45.6861536,59.7723418 L47.8694719,59.7723418 L47.8694719,69.6907427 L94.4696735,69.6907427 L94.4696735,10.8407822 L47.8694719,10.8407822 Z M71.1695727,55.3747623 L56.6095683,55.3747623 L56.6095683,52.021608 C56.6095683,49.6166817 60.7783418,47.2461115 63.8281647,45.7756709 C66.8711647,44.298359 68.0515212,44.4632682 68.0515212,43.2539339 C68.0515212,42.0377283 66.8370503,41.2063109 65.9432544,39.8939083 C64.3330571,37.5302094 64.2511826,34.7954646 64.2511826,33.6067439 C64.2511826,26.8660791 69.6412499,26.0552754 70.8079606,26.0552754 L71.5311848,26.0552754 C72.6978956,26.0552754 78.0879628,26.8660791 78.0879628,33.6067439 C78.0879628,34.8023358 78.0060884,37.5302094 76.3958911,39.8939083 C75.5020951,41.2063109 74.2876243,42.0377283 74.2876243,43.2539339 C74.2876243,44.456397 75.4679808,44.2914878 78.5109807,45.7756709 C81.5676265,47.2461115 85.7295771,49.6166817 85.7295771,52.021608 L85.7295771,55.3747623 L71.1695727,55.3747623 L71.1695727,55.3747623 Z" id="形状" fill="url(#linearGradient-8)"></path>
                </g>
            </g>
        </g>
    </g>
</svg>