<svg xmlns="http://www.w3.org/2000/svg" width="64" height="64" viewBox="0 0 64 64"><style>.a{fill:#FFDD67;}.b{fill:#EBA352;}</style><title>  Slice 1</title><desc>  Created with Sketch.</desc><g fill="none"><path d="M30.1 25.3C30.1 25.3 25.9 26.1 29.4 18.9 31.9 13.6 31.6 7.5 29.4 4.3 25.7-0.9 18.7 0.8 19.4 3.8 21.9 14 16.2 17 13.3 23.5 10.3 30 10.6 39.3 12 47.5 12.8 52.7 15 59 23.1 59L34.2 59 30.1 25.3 30.1 25.3Z" class="a"/><path d="M24.3 57.6C16.2 57.6 14.5 51.2 13.6 46.1 12.2 37.8 12 31.3 14.7 24.6 17.5 17.3 20.6 17.1 20.6 2.8 20.6 2 20.9 1.6 21.3 1.3 20 1.7 19.2 2.5 19.2 3.7 19.2 14.4 16.2 17 13.3 23.5 10.3 30 10.6 39.3 12 47.5 12.8 52.7 15 59 23.1 59L34.2 59 34.2 57.6 24.3 57.6Z" class="b"/><path d="M43.9 33.7L30.1 33.7C25.3 33.7 25.3 25.3 30.1 25.3L43.9 25.3C48.7 25.3 48.7 33.7 43.9 33.7L43.9 33.7Z" class="a"/><path d="M44.9 32.3L31.2 32.3C27.9 32.3 26.9 28.5 28 26 25.4 28 26.1 33.7 30.1 33.7L43.9 33.7C45.4 33.7 46.5 32.8 47 31.6 46.5 32 45.8 32.3 44.9 32.3L44.9 32.3Z" class="b"/><path d="M45.4 42.2L28.8 42.2C23.1 42.2 23.1 33.7 28.8 33.7L45.4 33.7C51.1 33.7 51.1 42.2 45.4 42.2L45.4 42.2Z" class="a"/><path d="M46.6 40.8L30.1 40.8C26.2 40.8 25 36.9 26.3 34.4 23.2 36.4 24.1 42.2 28.8 42.2L45.3 42.2C47.2 42.2 48.5 41.3 49.1 40.1 48.5 40.5 47.6 40.8 46.6 40.8Z" class="b"/><path d="M43.8 50.6L29.8 50.6C25 50.6 25 42.2 29.8 42.2L43.8 42.2C48.7 42.2 48.7 50.6 43.8 50.6Z" class="a"/><path d="M44.9 49.2L30.9 49.2C27.6 49.2 26.6 45.4 27.7 42.9 25.1 44.9 25.8 50.6 29.8 50.6L43.8 50.6C45.4 50.6 46.4 49.7 47 48.5 46.4 48.9 45.7 49.2 44.9 49.2Z" class="b"/><path d="M42.3 59L33.3 59C28.1 59 28.1 50.6 33.3 50.6L42.3 50.6C47.5 50.6 47.5 59 42.3 59Z" class="a"/><path d="M43.5 57.6L34.4 57.6C30.9 57.6 29.8 53.8 31 51.3 28.2 53.3 29 59 33.3 59L42.3 59C44 59 45.1 58.1 45.7 56.9 45.1 57.4 44.4 57.6 43.5 57.6L43.5 57.6Z" class="b"/></g></svg>
