<?xml version="1.0" encoding="UTF-8"?>
<svg width="12px" height="12px" viewBox="0 0 12 12" version="1.1" xmlns="http://www.w3.org/2000/svg" xmlns:xlink="http://www.w3.org/1999/xlink">
    <!-- Generator: Sketch 61 (89581) - https://sketch.com -->
    <title>添加备份 12</title>
    <desc>Created with Sketch.</desc>
    <g id="页面-1" stroke="none" stroke-width="1" fill="none" fill-rule="evenodd">
        <g id="发布新需求//计件" transform="translate(-718.000000, -554.000000)" fill="#FF6010">
            <g id="编组备份" transform="translate(718.000000, 551.000000)">
                <path d="M6.5,3 C6.77614237,3 7,3.22385763 7,3.5 L7,8 L11.5,8 C11.7761424,8 12,8.22385763 12,8.5 L12,9.5 C12,9.77614237 11.7761424,10 11.5,10 L7,10 L7,14.5 C7,14.7761424 6.77614237,15 6.5,15 L5.5,15 C5.22385763,15 5,14.7761424 5,14.5 L5,10 L0.5,10 C0.223857625,10 3.38176876e-17,9.77614237 0,9.5 L0,8.5 C-3.38176876e-17,8.22385763 0.223857625,8 0.5,8 L5,8 L5,3.5 C5,3.22385763 5.22385763,3 5.5,3 L6.5,3 Z" id="添加备份-12"></path>
            </g>
        </g>
    </g>
</svg>