<?xml version="1.0" encoding="UTF-8"?>
<svg width="11px" height="13px" viewBox="0 0 11 13" version="1.1" xmlns="http://www.w3.org/2000/svg" xmlns:xlink="http://www.w3.org/1999/xlink">
    <!-- Generator: Sketch 61 (89581) - https://sketch.com -->
    <title>Path 3 Copy 8</title>
    <desc>Created with Sketch.</desc>
    <defs>
        <linearGradient x1="35.7131892%" y1="104.82337%" x2="62.3461434%" y2="34.3673508%" id="linearGradient-1">
            <stop stop-color="#FFC242" offset="0%"></stop>
            <stop stop-color="#FF8F1F" offset="100%"></stop>
        </linearGradient>
    </defs>
    <g id="页面-1" stroke="none" stroke-width="1" fill="none" fill-rule="evenodd">
        <g id="选择TA" transform="translate(-486.000000, -180.000000)" fill="url(#linearGradient-1)">
            <g id="编组" transform="translate(400.000000, 139.000000)">
                <g id="编组-10" transform="translate(86.000000, 41.000000)">
                    <path d="M4.93744596,-1.81197908e-13 C5.07799168,-1.81197908e-13 3.41400391,2.70901497 1.12884084,5.0310278 C-1.15632223,7.74004277 0.175539655,12.7593432 3.79486443,12.7710706 C3.02615221,11.6810664 3.26155459,10.2692853 3.79486443,9.40746798 C3.79486443,9.73290381 3.34143616,13 7.30814712,13 C12.8332652,10.2110208 9.50777211,3.87002139 9.50777211,3.87002139 C9.50777211,3.87002139 8.60775714,6.57903635 7.60346955,6.57903635 C8.19932893,2.59174159 5.07799168,-1.81197908e-13 4.93744596,-1.81197908e-13 Z" id="Path-3-Copy-8"></path>
                </g>
            </g>
        </g>
    </g>
</svg>