<?xml version="1.0" encoding="UTF-8"?>
<svg width="80px" height="80px" viewBox="0 0 80 80" version="1.1" xmlns="http://www.w3.org/2000/svg" xmlns:xlink="http://www.w3.org/1999/xlink">
    <!-- Generator: Sketch 61 (89581) - https://sketch.com -->
    <title>已接受</title>
    <desc>Created with Sketch.</desc>
    <g id="页面-1" stroke="none" stroke-width="1" fill="none" fill-rule="evenodd">
        <g id="选择TA" transform="translate(-1250.000000, -155.000000)">
            <g id="编组" transform="translate(400.000000, 139.000000)">
                <g id="编组-14">
                    <g id="已接受" transform="translate(850.000000, 16.000000)">
                        <path d="M29.4283822,3.88427577 C29.3483821,4.28427623 29.0683818,4.6842767 28.8683816,5.04427712 C25.5083777,6.08427833 22.1883738,7.68428019 18.7883698,10.0442829 C15.468366,12.4042857 12.2683622,15.6442895 10.0283596,18.8442932 C7.74835699,22.0842969 6.18835517,25.3643008 5.14835396,28.6843046 C4.58835331,30.3243065 4.22835289,32.0043085 3.90835252,33.6443104 C3.78835238,34.4843114 3.62835219,35.2843123 3.58835215,36.1243133 C3.42835196,36.9243142 3.5483521,37.7643152 3.30835182,38.6043162 C2.98835145,38.7643164 2.82835126,38.9643166 2.50835089,39.1243168 C2.50835089,39.324317 2.9483514,39.6443174 2.54835094,39.7643175 C2.3483507,39.6443174 2.46835084,39.2043169 2.46835084,38.9243165 C2.46835084,38.6043162 2.4283508,38.2443157 2.54835094,38.0043155 C2.70835112,38.0443155 2.46835084,38.2043157 2.62835103,38.2843158 C2.70835112,38.2443157 2.86835131,38.0443155 2.9483514,37.9243154 C2.90835136,37.8043152 2.66835108,37.6843151 2.50835089,37.564315 C2.50835089,37.4043148 2.46835084,37.2043145 2.62835103,37.0043143 C2.58835098,36.9643143 2.46835084,36.9243142 2.50835089,36.8043141 C3.26835177,29.0843051 5.90835485,21.1642959 13.0283631,13.7642873 C15.3883659,11.2842844 17.8283687,9.44428224 20.3483716,7.88427577 C21.5883731,7.12427954 22.8283745,6.44427875 24.068376,5.88427577 C24.7083767,5.56427772 25.3083774,5.32427744 25.9483782,5.08427716 C26.5483789,4.92427698 27.1883796,4.48427647 27.7883803,4.52427651 C28.2283808,4.12427605 28.8683816,4.084276 29.4283822,3.88427577 Z M3.30835182,38.2043157 C3.30835182,38.1243156 3.14835163,38.0443155 3.06835154,38.0443155 C3.10835159,38.2043157 3.14835163,38.3243158 3.30835182,38.2043157 Z M28.5883812,1.60427311 C28.5483812,1.84427339 28.6283813,2.20427381 28.348381,2.40427405 C28.2283808,2.24427386 28.1083807,2.20427381 27.9083804,2.24427386 C27.7883803,2.68427437 27.7483803,3.16427493 27.6683802,3.60427311 C27.3083797,3.76427563 26.9883794,3.84427572 26.628379,4.00427591 C26.5483789,3.36427516 26.8683792,2.76427446 26.9883794,2.16427377 C27.54838,1.88427344 28.0683806,1.7642733 28.5883812,1.60427311 Z M29.268382,1.72427325 C29.5883824,2.08427367 29.1483819,2.40427405 29.268382,2.76427446 C29.3883822,2.80427451 29.4683823,2.9642747 29.5083823,2.9642747 C29.3883822,3.12427488 29.0683818,3.12427488 28.8683816,3.20427498 C28.8683816,2.72427442 29.1083818,2.20427381 29.0283817,1.72427325 C29.1083818,1.72427325 29.1883819,1.68427321 29.268382,1.72427325 L29.268382,1.72427325 Z M30.108383,2.52427418 C30.2283831,2.48427414 30.3483833,2.68427437 30.3883833,2.76427446 C30.2683832,2.92427465 30.1883831,2.84427456 30.068383,2.92427465 C29.9883829,2.76427446 30.108383,2.64427432 30.108383,2.52427418 L30.108383,2.52427418 Z M40.0283945,0.00427125243 C40.1083946,0.0842713455 39.9883945,0.124271392 40.1083946,0.204271485 C40.2283948,0.164271439 40.3483949,0.044271299 40.4683951,0.00427125243 C41.9083967,0.044271299 43.3883985,0.044271299 44.8284001,0.324271625 C44.5083998,0.804272183 43.9883992,1.28427274 43.5083986,1.72427325 C39.3483938,1.44427293 35.1883889,1.72427325 31.0683841,2.60427428 C31.1883843,2.44427409 31.1483842,2.28427391 31.2683844,2.08427367 C31.4683846,1.88427344 31.6683848,2.12427372 31.8683851,1.84427339 C31.9483851,1.72427325 31.6683848,1.60427311 31.6683848,1.48427297 C31.7483849,1.20427265 32.0683841,0.96427237 32.1083853,0.764272137 C34.7083884,0.204271485 37.3883915,-0.0357287941 40.0283945,0.00427125243 Z M30.7883838,3.52427535 C30.8683839,3.84427572 30.5483835,4.20427614 30.7083837,4.52427535 C30.3483833,4.64427665 30.0283829,4.72427674 29.6683825,4.84427688 C29.6283824,4.72427674 29.6683825,4.60427661 29.8283827,4.48427647 C29.9083828,4.28427623 29.9083828,4.04427595 29.9083828,3.84427572 C30.1483831,3.60427544 30.4683834,3.60427544 30.7883838,3.52427535 L30.7883838,3.52427535 Z M42.6283976,2.52427418 C42.3483972,2.80427451 42.0283969,3.08427484 41.7483966,3.36427516 C38.4283927,3.20427498 35.0683888,3.56427539 31.7483849,4.16427609 C31.6283848,4.04427595 31.828385,3.92427581 31.7483849,3.80427567 C31.7483849,3.64427549 31.5483847,3.88427577 31.4283845,3.80427567 C31.2683844,3.64427549 31.5083846,3.4842753 31.3883845,3.32427395 C31.3883845,3.28427507 31.4283845,3.32427395 31.4283845,3.32427395 C33.3083867,2.84427456 35.1883889,2.60427428 37.0683911,2.44427409 C37.9883922,2.364274 38.9483933,2.32427395 39.8683944,2.32427395 C40.7883954,2.40427405 41.8283966,2.364274 42.6283976,2.52427418 L42.6283976,2.52427418 Z M3.34835187,40.2443181 C3.46835201,43.3643217 3.82835243,46.4443253 4.6683534,49.5643289 C4.58835331,49.6843291 4.54835326,49.8043292 4.54835326,49.9243293 C4.26835294,49.9643294 4.1483528,50.2443297 3.98835261,50.48433 C2.90835136,47.044326 2.4283508,43.4443218 2.46835084,40.1243179 C2.78835122,40.0043178 3.06835154,40.204318 3.34835187,40.2443181 Z M53.2284099,4.80427684 C53.26841,4.84427688 53.1484098,4.92427698 53.2284099,4.96427702 C53.0284097,5.16427726 52.7084093,5.08427716 52.6284092,5.40427754 C52.7484094,5.56427423 52.9084095,5.48427763 53.0284097,5.56427423 C53.0684097,5.48427763 53.0684097,5.36427749 53.1084098,5.24427735 C53.34841,5.2042773 53.7884106,4.72427674 53.9484107,5.2042773 C53.7084105,5.32427744 53.4284101,5.2842774 53.2284099,5.64427782 C53.3884101,5.76427795 53.5884103,5.60427777 53.7484105,5.68427786 C53.7084105,5.804278 53.5084102,5.76427795 53.4284101,5.84427805 C50.2284064,4.56427423 46.9884026,3.84427572 43.7883989,3.44427526 C43.9483991,3.36427516 44.1083993,3.24427502 44.2683995,3.28427507 C44.3483996,3.24427502 44.1883994,3.16427493 44.2683995,3.12427488 C44.3083995,3.00427474 44.1483993,3.16427493 44.0683993,3.12427488 C43.9483991,2.9642747 43.7883989,2.76427446 43.868399,2.56427423 C46.9484026,2.84427456 50.1084063,3.68427553 53.2284099,4.80427684 L53.2284099,4.80427684 Z M53.7084105,5.92427814 C53.7884106,5.88427809 53.9084107,6.08427833 53.9084107,6.12427837 C53.8284106,6.12427837 53.7484105,6.08427833 53.6684104,6.04427828 C53.7084105,5.96427819 53.7484105,5.92427814 53.7084105,5.92427814 L53.7084105,5.92427814 Z M77.0284376,35.4843125 C76.6684372,35.2843123 76.3484368,35.1243121 76.1084365,35.1243121 C75.3084356,29.6843058 73.5484336,24.2042994 69.628429,18.684293 C67.7484268,16.0042899 64.9084235,13.0042864 62.3084112,11.0442841 C59.6684174,8.96428168 56.9884143,7.44427991 54.3084112,6.32427861 C54.3084112,5.96427819 54.4684114,5.64427782 54.3484112,5.2842774 C54.3484112,5.24427735 54.3884113,5.2842774 54.3884113,5.2842774 C57.2284146,6.48427879 60.0284178,8.00428056 62.8284211,10.2042831 C65.5884243,12.2442855 68.6284278,15.4842893 70.5484301,18.2442925 C72.6284325,21.1242958 74.0284341,24.0442992 75.1084354,26.8843025 C75.628436,28.3243042 76.0684365,29.7643059 76.3884369,31.2043076 C76.548437,31.9243084 76.7084372,32.6443092 76.7884373,33.3643101 C76.9084375,33.7243105 76.9084375,34.0843109 76.9884376,34.4443113 C76.9884376,34.7643117 77.1884378,35.2443123 77.0284376,35.4843125 Z M23.3483751,65.6443476 C24.108376,65.4043474 24.8283769,65.3643473 25.5483777,65.2043471 C25.9883782,64.6843454 26.4283787,64.1643459 26.9083793,63.6843454 C27.2283797,64.204346 27.4683799,64.6843454 27.7883803,65.2043471 C28.4683811,65.4843474 29.1483819,65.6043476 29.7883826,65.7243477 C29.3483751,66.2043483 28.8283815,66.6443488 28.2683809,67.1243494 C28.0683806,67.7243501 28.2683809,68.524351 28.0283806,69.0443516 C27.4283799,68.7643513 26.7883791,68.6043511 26.1883784,68.2843507 C25.5083777,68.524351 24.8283769,68.6843454 24.1483761,68.9643515 C24.108376,68.3643508 24.3883763,67.7243501 24.5083765,67.0843493 C24.068376,66.5243487 23.8683757,66.1643482 23.3483751,65.6443476 Z M38.3883926,68.6843512 C39.1483935,68.4443509 39.8683944,68.4043508 40.5883952,68.2443507 C41.0283957,67.7243489 41.4683962,67.2043494 41.9483968,66.7243489 C42.2683972,67.2443495 42.5083974,67.7243489 42.8283978,68.2443507 C43.5083986,68.524351 44.1883994,68.6443511 44.8284001,68.7643513 C44.3883926,69.2443518 43.868399,69.6843523 43.3083984,70.1643529 C43.1083981,70.7643536 43.3083984,71.5643545 43.0683981,72.0843551 C42.4683974,71.8043548 41.8283966,71.6443546 41.2283959,71.3243542 C40.5483952,71.5643545 39.8683944,71.7243489 39.1883936,72.004355 C39.1483935,71.4043543 39.4283939,70.7643536 39.548394,70.1243528 C39.0683934,69.5243521 38.8683932,69.2043518 38.3883926,68.6843512 Z M54.3484112,62.9243445 C55.1084121,62.6843442 55.8284129,62.6443441 56.5484138,62.484344 C56.9884143,61.9643422 57.4284148,61.4443427 57.9084154,60.9643422 C58.2284157,61.4843428 58.468416,61.9643422 58.7884164,62.484344 C59.4684172,62.7643443 60.148418,62.8843444 60.7884187,63.0043446 C60.3484112,63.4843451 59.8284176,63.9243456 59.2684169,64.4043462 C59.0684167,65.0043469 59.2684169,65.8043478 59.0284167,66.3243484 C58.428416,66.0443481 57.7884152,65.8843479 57.1884145,65.5643475 C56.5084137,65.8043478 55.8284129,65.9643422 55.1484121,66.2443483 C55.1084121,65.6443476 55.3884124,65.0043469 55.5084126,64.3643461 C55.028412,63.7643454 54.8284118,63.404345 54.3484112,62.9243445 Z M64.3084228,51.6043313 C65.0684237,51.364331 65.7884245,51.324331 66.5084254,51.1643308 C66.9484259,50.644329 67.3884264,50.1243296 67.8684269,49.644329 C68.1884273,50.1643296 68.4284276,50.644329 68.748428,51.1643308 C69.4284288,51.4443311 70.1084296,51.5643312 70.7484303,51.6843314 C70.3084228,52.1643319 69.7884292,52.6043325 69.2284285,53.084333 C69.0284283,53.6843337 69.2284285,54.4843346 68.9884282,55.0043353 C68.3884275,54.7243349 67.7484268,54.5643347 67.1484261,54.2443344 C66.4684253,54.4843346 65.7884245,54.644329 65.1084237,54.9243352 C65.0684237,54.3243345 65.348424,53.6843337 65.4684242,53.044333 C64.9884236,52.4843323 64.7884234,52.1243319 64.3084228,51.6043313 Z M67.028426,39.2443169 C67.7884269,39.0043166 68.5084277,38.9643166 69.2284285,38.8043164 C69.668429,38.2843146 70.1084296,37.7643152 70.5884301,37.2843146 C70.9084305,37.8043152 71.1484308,38.2843146 71.4684311,38.8043164 C72.1484319,39.0843167 72.8284327,39.2043169 73.4684335,39.324317 C73.028426,39.8043176 72.5084323,40.2443181 71.9484317,40.7243186 C71.7484315,41.3243193 71.9484317,42.1243203 71.7084314,42.6443209 C71.1084307,42.3643205 70.46843,42.2043204 69.8684293,41.88432 C69.1884285,42.1243203 68.5084277,42.2843146 67.8284269,42.5643208 C67.7884269,41.9643201 68.0684272,41.3243193 68.1884273,40.6843186 C67.7484268,40.1243179 67.5484266,39.7643175 67.028426,39.2443169 Z M55.7484128,12.4842858 C55.028412,12.7642861 54.3084053,12.8442862 53.5884103,13.0842865 C53.1884099,13.6042871 52.7884094,14.1642877 52.3084053,14.6842883 C51.9884085,14.2042878 51.7084081,13.6842872 51.3484077,13.2042866 C50.6684069,12.9642863 49.9884061,12.8842862 49.3084053,12.8042861 C49.7084058,12.3242856 50.2284064,11.804285 50.748407,11.3242844 C50.9084072,10.6842837 50.6684069,9.9242828 50.8684072,9.40428219 C51.5084079,9.64428247 52.1084086,9.76428261 52.7484094,10.0442829 C53.4284101,9.76428261 54.0684109,9.56428238 54.7484117,9.244282 C54.8284118,9.8442827 54.5884115,10.4842834 54.5084114,11.1242842 C54.988412,11.6842848 55.1884122,12.0042852 55.7484128,12.4842858 L55.7484128,12.4842858 Z M41.0683958,10.1642831 C40.3483949,10.4442834 39.6283883,10.5242835 38.9083932,10.7642838 C38.5083928,11.2842844 38.1083923,11.844285 37.6283883,12.3642856 C37.3083914,11.8842851 37.0283911,11.3642845 36.6683906,10.8842839 C35.9883898,10.6442836 35.3083891,10.5642835 34.6283883,10.4842834 C35.0283887,10.0042829 35.5483893,9.48428228 36.0683899,9.00428173 C36.2283901,8.36428098 35.9883898,7.6042801 36.1883901,7.08427949 C36.8283908,7.32427977 37.4283915,7.44427991 38.0683923,7.72428024 C38.7483931,7.44427991 39.3883938,7.24427968 40.0683946,6.9242793 C40.1483947,7.52428 39.9083944,8.16428075 39.8283943,8.80428149 C40.3083949,9.3242821 40.5083951,9.68428252 41.0683958,10.1642831 L41.0683958,10.1642831 Z M26.1083784,15.7242895 C25.3883775,16.0042899 24.6683709,16.08429 23.9483758,16.3242902 C23.5483754,16.8442908 23.1483749,17.4042915 22.6683709,17.9242921 C22.348374,17.4442915 22.0683737,16.9242909 21.7083732,16.4442904 C21.0283724,16.2042901 20.3483716,16.12429 19.6683709,16.0442899 C20.0683713,15.5642894 20.5883719,15.0442888 21.1083725,14.5642882 C21.2683727,13.9242875 21.0283724,13.1642866 21.2283727,12.644286 C21.8683734,12.8842862 22.4683741,13.0042864 23.1083749,13.2842867 C23.7883757,13.0042864 24.4283764,12.8042861 25.1083772,12.4842858 C25.1883773,13.0842865 24.948377,13.7242872 24.8683769,14.364288 C25.3483775,14.8842886 25.5483777,15.244289 26.1083784,15.7242895 L26.1083784,15.7242895 Z M16.2683669,27.5243033 C15.5483661,27.8043036 14.8283594,27.8843037 14.1083644,28.124304 C13.7083639,28.6443046 13.3083635,29.2043052 12.8283594,29.7243058 C12.5083625,29.2443053 12.2283622,28.7243047 11.8683618,28.2443041 C11.188361,28.0043038 10.5083602,27.9243037 9.82835941,27.8443036 C10.2283599,27.3643031 10.7483605,26.8443025 11.2683611,26.3643019 C11.4283613,25.7243012 11.188361,24.9643003 11.3883612,24.4442997 C12.028362,24.6843 12.6283627,24.8043001 13.2683634,25.0843004 C13.9483642,24.8043001 14.5883649,24.6042999 15.2683657,24.2842995 C15.3483658,24.8843002 15.1083656,25.5243009 15.0283655,26.1643017 C15.508366,26.6843023 15.7483663,27.0443027 16.2683669,27.5243033 Z M13.6683639,41.3643194 C12.948363,41.6443197 12.2283564,41.7243198 11.5083614,41.9643201 C11.1083609,42.4843207 10.7083604,43.0443213 10.2283564,43.5643219 C9.9083595,43.0843214 9.62835917,42.5643208 9.26835876,42.0843202 C8.58835796,41.8443199 7.90835717,41.7643198 7.22835638,41.6843198 C7.62835685,41.2043192 8.14835745,40.6843186 8.66835806,40.204318 C8.82835824,39.5643173 8.58835796,38.8043164 8.7883582,38.2843158 C9.42835894,38.5243161 10.0283596,38.6443162 10.6683604,38.9243165 C11.3483612,38.6443162 11.9883619,38.444316 12.6683627,38.1243156 C12.7483628,38.7243163 12.5083625,39.3643171 12.4283624,40.0043178 C12.908363,40.5643184 13.1083632,40.8843188 13.6683639,41.3643194 L13.6683639,41.3643194 Z M16.8283676,70.4043532 C27.9483805,78.3243624 39.2283936,79.6043639 50.6284069,76.5643603 C50.5484068,76.7643606 50.7884071,76.9643608 50.6284069,77.164361 C50.5084067,77.3243612 50.4284067,77.2843612 50.3084065,77.3243612 C50.4284067,77.6443616 50.2284064,78.004362 50.3884066,78.3243624 C49.0684051,78.7243629 47.7484035,79.0043632 46.3884019,79.2043634 C46.3884019,78.9643631 46.1884017,78.844363 46.3484019,78.6043627 C46.1484017,78.3643624 45.7884013,78.3243624 45.5084009,78.4043532 C45.3884008,78.6843628 45.588401,78.9643631 45.548401,79.2043634 C45.4284008,79.2443635 45.3884008,79.2043634 45.3084007,79.3643636 C44.1483993,79.4843637 42.988398,79.684364 41.8283966,79.6443639 C41.8283966,79.5243638 41.8283966,79.3643636 41.8683967,79.2443635 C41.308396,79.0443632 40.7483954,79.1243633 40.1883947,79.0043632 C40.0683946,79.2443635 39.7083942,79.4443637 39.7483942,79.684364 C38.3083925,79.724364 36.8283908,79.6043639 35.3883891,79.4443637 C35.5883894,79.2843635 35.7083895,78.9643631 36.0283899,78.8043629 C36.0683899,78.6443628 35.9483898,78.4443625 35.9083898,78.2843623 C35.5883894,78.2443623 35.3083891,78.6043627 35.0683888,78.9243631 C35.0683888,79.1243633 35.3083891,79.1643634 35.228389,79.3643636 C34.7883885,79.5243638 34.3483879,79.3243636 33.8683874,79.2843635 C33.4283869,79.2443635 32.9883864,79.1243633 32.5483858,79.0843633 C31.6683848,78.884363 30.7883838,78.7243629 29.8683827,78.4843626 C29.9083828,78.1243622 29.5483824,77.8443618 29.268382,77.6043616 C29.0283817,77.6443616 28.9483817,78.0843621 28.6683813,78.0843621 C26.708379,77.6443616 24.7483768,76.8043606 22.7883745,75.9243596 C20.8283676,75.0043585 18.90837,73.8843572 16.9883677,72.5643557 C16.7883675,71.8043548 16.9483677,71.084354 16.8283676,70.4043532 L16.8283676,70.4043532 Z M76.1484366,35.4843125 C76.468437,35.6043127 76.7884373,35.884313 77.1084377,35.9643131 C77.1084377,36.0843132 76.9884376,36.1643133 76.9484375,36.3243135 C76.7084372,36.4043136 76.468437,36.1243133 76.2284367,36.0843132 C76.1484366,35.884313 76.1884366,35.6843128 76.1484366,35.4843125 Z M24.6683767,22.0042969 C24.6283766,22.124297 24.4283764,22.2442971 24.3483728,22.3642973 C24.5883766,22.5642975 24.8683769,22.0042969 24.6683767,21.9642968 C24.7883768,21.6042964 25.1483772,21.5642963 25.4283776,21.4442962 C25.5883777,21.3242902 25.5083777,21.2042959 25.5883777,21.0842958 C29.5883824,18.0442922 33.548387,16.8042908 37.5083916,16.3242902 C37.5883917,16.6442906 37.5083916,16.964291 37.1883912,17.2442913 C33.0283864,17.804292 28.8683816,19.2842937 24.6283766,23.004298 C24.6283766,22.7242977 24.5083765,22.6842976 24.7083767,22.4042973 C24.5883766,22.3642973 24.4683764,22.6442976 24.3083763,22.7242977 C24.2683762,22.8042978 24.5483765,22.7242977 24.5083765,22.7642977 C24.4683764,22.8842979 24.3083763,22.964298 24.2283762,23.0842981 C24.1883761,23.1642982 24.4283764,23.0842981 24.3883763,23.1642982 C23.5083753,24.1242993 22.5883743,25.0443004 21.8283734,26.0043015 C21.6683732,25.7643012 21.548373,25.4043008 21.3483728,25.2043006 C21.9483735,24.4442997 22.6283743,23.7242989 23.3883752,22.9242979 C23.4683753,22.8442978 23.5883754,22.7242977 23.6683755,22.8442978 C23.8683757,22.5642975 24.3083763,21.9642968 24.6683767,22.0042969 L24.6683767,22.0042969 Z M20.8683723,26.2843018 C20.9883724,26.6043022 20.8683723,26.9243026 20.9883724,27.2443029 C19.828371,29.044305 18.94837,30.8443071 18.3883694,32.6443092 C18.3483693,32.7243093 18.3083693,32.7643094 18.2283692,32.8443095 C18.2283692,32.9243096 18.2683669,33.0443097 18.2283692,33.1243098 C17.9083688,34.0843109 17.6683685,35.0843121 17.5483684,36.0443132 C17.4283683,36.5243137 17.3883682,37.0443144 17.3483682,37.5243149 C17.228368,37.9643154 17.3083681,38.5643161 17.1483679,38.8843165 C17.3083681,39.2043169 17.1483679,39.6443174 17.188368,40.0443178 C16.1883668,40.3243182 16.3083669,41.7243198 17.2683669,41.9643201 C17.3083681,42.6043208 17.5083683,43.2843216 17.4683683,43.9243224 C17.228368,44.2043227 16.9883677,44.2043227 16.7483675,44.0443225 C16.4283671,43.4043218 16.5083672,42.764321 16.388367,42.0843202 L16.2683669,40.164318 C16.2683669,38.8843165 16.3083669,37.604315 16.5883673,36.3243135 C16.6283673,36.2043134 16.6683674,36.4043136 16.7083674,36.3243135 C16.6683674,36.1243133 16.8683676,36.0043131 16.9483677,35.9243131 C17.228368,34.9243119 17.5083683,33.9243107 17.5883684,32.9643096 C17.5483684,32.8843095 17.5083683,32.7643094 17.3883682,32.6843093 C18.068369,30.5643068 19.0683702,28.4443043 20.5083718,26.3643019 C20.668372,26.2843018 20.7483721,26.3243019 20.8683723,26.2843018 Z M47.5884033,17.4842916 C47.3484031,17.6842918 47.1084028,17.9642922 46.9084026,18.0842923 C44.5483998,17.4442915 42.1883971,17.004291 39.7883943,17.0442911 C39.7483942,16.7642908 39.7083942,16.4042903 39.8283943,16.2042901 C42.4283973,16.1642901 44.9884003,16.6042906 47.5884033,17.4842916 Z M49.4684055,18.2842925 C50.4284067,18.6042929 51.3484077,19.0842935 52.2684088,19.7642942 C52.3484089,19.9242944 52.3084088,20.1242947 52.2284087,20.2842925 C52.1084086,20.404295 51.9884085,20.404295 51.8284083,20.444295 C51.0284073,20.0442946 50.2684065,19.564294 49.4684055,19.2042936 C49.4684055,18.8842932 49.5484056,18.5642928 49.4684055,18.2842925 L49.4684055,18.2842925 Z M28.9883817,59.4443404 C28.9483817,59.7243407 28.9083816,60.0443411 28.7883815,60.3243414 C28.1083807,59.924341 27.4283799,59.6443407 26.7883791,59.04434 C26.628379,58.7243396 26.9883794,58.3243391 27.3083797,58.4043392 C27.8683804,58.8043397 28.4283811,59.12434 28.9883817,59.4443404 Z M38.3483926,62.8043443 C38.2283925,62.8043443 38.0683923,62.9643445 38.0283922,63.0843447 C35.1883889,62.8443444 32.3483856,62.1243435 29.5483824,60.7243419 C29.4683823,60.4443416 29.6283824,60.1643413 29.7483826,59.8843409 C32.5483858,61.2043425 35.3483891,61.9643434 38.1483924,62.2443437 C38.2683925,62.4043439 38.3483926,62.564344 38.3483926,62.8043443 Z M62.1484203,47.7243268 C61.90842,47.5643266 61.6284197,47.4443265 61.3884194,47.4443265 C62.0684202,45.4443241 62.5484208,43.4843218 62.7084209,41.4843195 C62.788421,40.4843184 62.788421,39.4843172 62.788421,38.484316 C62.748421,37.4843149 62.5484208,36.4843137 62.5084207,35.4843125 C62.5484208,35.4443125 62.5484208,35.4043124 62.5884208,35.3643124 C62.788421,35.1643122 62.9484212,35.2043122 63.1484215,35.2443123 C63.588422,35.7643129 63.4284218,36.2843135 63.5484219,36.8443141 C63.628422,37.3643147 63.6684221,37.8843153 63.6684221,38.4043159 C63.7484222,39.4443171 63.7084221,40.4843184 63.628422,41.5243196 C63.3884194,43.604322 62.9484212,45.6843244 62.1484203,47.7243268 L62.1484203,47.7243268 Z M48.3484042,60.6843419 C48.4684044,60.9643422 48.4684044,61.2843426 48.3884043,61.5643429 C45.3884008,62.7643443 42.3883973,63.2443448 39.4283939,63.0843447 C39.2283936,62.8043443 39.1883936,62.524344 39.1083935,62.2843437 C42.1883971,62.3243438 45.2684006,61.9243433 48.3484042,60.6843419 Z M61.7884199,48.6443279 C60.5884185,51.5643312 58.5484161,54.7243349 55.3884124,57.4443381 C55.3084123,57.4443381 55.3484124,57.1243377 55.2684123,57.0043376 C55.2284122,56.8843374 55.1084121,56.8043373 54.988412,56.6843372 C56.8284141,55.0443353 58.2684158,53.2843333 59.3884171,51.5243312 C59.4284171,51.4043311 59.5884173,51.4443311 59.6284174,51.2843309 C59.988412,50.2843298 60.7484187,49.1643285 61.1084191,48.0843272 C61.1484191,48.0443272 61.1484191,48.0443272 61.1484191,48.0043271 C61.1484191,47.9643271 61.1884192,48.0043271 61.1884192,48.0043271 C61.3884194,48.0843272 61.6284197,48.4443276 61.7884199,48.6443279 Z M53.4684102,57.8443386 C53.5884103,58.1243389 53.9084107,58.3643392 54.188411,58.3643392 C52.7884094,59.5243405 51.1884075,60.3643415 49.7084058,61.0443423 C49.7084058,60.7243419 49.9884061,60.4443416 49.9484061,60.1243412 C49.908406,60.0843412 49.9484061,60.0843412 49.908406,60.0443411 C51.1084074,59.3643403 52.2684088,58.7643396 53.4684102,57.8443386 Z M77.9884387,36.6843139 C78.5084393,36.8043141 79.0284399,36.8843142 79.5484405,37.3643147 C79.5884406,37.5243149 79.5884406,37.7243151 79.7484408,37.9243154 C79.8284409,39.2043169 79.7884408,40.4443183 79.7884408,41.7243198 C79.7484408,41.88432 79.6284406,41.92432 79.6284406,42.1243203 C79.5484405,42.2443204 79.8284409,42.2443204 79.7084407,42.3643205 C79.5884406,45.364324 79.0284399,48.3243275 78.1484389,51.324331 C77.6284383,51.1243307 77.1484377,50.9243305 76.6684372,50.7643303 C77.8684386,46.0443248 78.4284392,41.4043194 77.9884387,36.6843139 L77.9884387,36.6843139 Z M25.831655,14.364288 C25.874932,14.364288 26.004763,14.4842881 25.961486,14.5642882 C25.918209,14.6042882 25.831655,14.4842881 25.788378,14.4442881 C25.831655,14.404288 25.831655,14.404288 25.831655,14.364288 Z M51.9884085,75.2843589 C51.9084084,75.3643589 52.1084086,75.0443586 52.0284085,74.9243584 C51.7084081,74.7643582 51.4284078,75.2843589 51.3084077,75.5243591 C44.7884001,77.5643615 38.2683925,77.8043618 31.828385,76.4443602 C25.4283776,75.0043585 18.8683699,71.964355 12.7483628,65.6843477 C8.22835755,60.8843421 5.62835452,55.8443362 4.10835275,51.0043306 C4.10835275,50.8843305 4.0683527,50.8043304 4.18835284,50.6843302 C4.1483528,50.5643301 4.0683527,50.8043304 3.98835261,50.6843302 C4.02835266,50.6043301 4.10835275,50.52433 4.22835289,50.4043299 C4.54835326,50.4043299 4.78835354,50.7243303 5.02835382,50.8043304 C6.42835545,55.0043353 8.46835782,59.2043401 12.028362,63.4443451 C12.1083621,63.8843456 12.068362,64.3243461 12.1483621,64.7643466 C12.3883624,64.8043467 12.5883626,64.4443462 12.908363,64.4443462 C13.1083632,64.5643464 13.3483635,64.8843467 13.4683636,65.0043469 C19.5083707,71.1643541 25.6283778,73.9243573 31.788385,75.404359 C34.8683885,76.0843598 37.9483921,76.4043602 41.0283957,76.28436 C42.5883975,76.28436 44.1083993,76.0843598 45.6684011,75.8443595 C46.428402,75.7243594 47.2284029,75.5643592 48.0284039,75.404359 C48.7884047,75.2843589 49.5884057,74.8843584 50.3484066,74.9243584 C50.5084067,74.9643585 50.4684067,75.1643587 50.5884068,75.2843589 C50.7884071,75.0443586 50.9084072,74.8443583 51.0684074,74.6043581 C54.6284115,73.4043567 58.1884157,71.6843547 61.7884199,69.0843516 C61.86842,69.1643517 61.90842,69.2443518 61.9884201,69.2843519 C62.0684202,69.404352 61.8284199,69.2443518 61.7484198,69.3243519 C61.7884199,69.4443521 61.9884201,69.6043522 62.0684202,69.7243524 C61.9884201,69.7643524 61.90842,69.6843523 61.8284199,69.7243524 C61.7484198,69.8043525 61.9484201,69.9243526 62.0284201,70.0443528 C58.7084163,72.4843556 55.3484124,74.2043576 51.9884085,75.2843589 Z M77.1884378,36.6443139 C77.6284383,41.2443192 77.1484377,45.8043245 75.8684363,50.3643299 C75.8284362,50.52433 75.7484361,50.4043299 75.668436,50.52433 C75.628436,50.6443302 75.7884362,50.6443302 75.7884362,50.7243303 C74.2284343,55.7643361 71.5884313,60.8843421 66.9884259,65.7243477 C65.5084242,67.2043494 63.7484222,68.8443514 62.1884203,69.8843526 C62.0284201,69.7643524 62.2284204,69.8443525 62.2284204,69.7643524 C62.2284204,69.6043522 61.9884201,69.4443521 62.1484203,69.364352 C62.0284201,69.2043518 62.0284201,69.0843516 61.9484201,68.9243515 C62.2284204,68.6843512 62.5484208,68.4843509 62.8284211,68.2043506 C62.8684211,68.2443507 62.748421,68.3243508 62.7084209,68.3643508 C62.9484201,68.564351 63.0284213,68.2043506 63.1084214,67.9643503 C63.5484219,67.6043499 63.9884224,67.2443495 64.3884229,66.8843491 C64.468423,67.0443493 64.508423,67.1243494 64.6684232,67.1643494 C64.7484233,67.1643494 64.8684235,67.0443493 64.9484201,67.0443493 C65.0684237,66.804349 64.9484201,66.5643487 64.9884236,66.3243484 C74.5884348,56.8043373 76.9484375,46.5243254 76.2684367,36.5243137 C76.508437,36.5643138 76.7084372,36.724314 76.9484375,36.5643138 C76.7884373,36.764314 77.0684377,36.6843139 77.1884378,36.6443139 L77.1884378,36.6443139 Z M72.5884324,56.4043369 C72.6284325,56.3643368 72.6684325,56.484337 72.7084326,56.4443369 C72.7484326,56.3243368 72.8284327,56.2443367 72.7484326,56.1243366 C72.7084326,56.2443367 72.5084323,56.3243368 72.5884324,56.4043369 L72.5884324,56.4043369 Z M72.7884327,57.6443383 C72.7484326,57.5643382 72.9084328,57.4843381 72.8284327,57.404338 C72.7484326,57.4843381 72.7084326,57.4443381 72.6284325,57.5243382 C72.7084326,57.6443383 72.7084326,57.6843384 72.7884327,57.6443383 L72.7884327,57.6443383 Z M63.0684214,68.4443509 C62.9884213,68.564351 62.748421,68.6843512 62.748421,68.8043513 C62.9484212,68.8443514 63.0684214,68.6043511 63.0684214,68.4443509 Z M62.7890773,69.2043518 C62.8756857,69.1243517 62.962294,69.0843516 62.962294,68.9643515 C62.8756857,69.0843516 62.7457732,69.1243517 62.7890773,69.2043518 Z M46.7484024,0.604271951 C47.9084037,0.72427209 49.0684051,1.04427246 50.1884064,1.32427279 C50.3484066,1.36427283 50.2284064,1.44427293 50.2684065,1.56427307 C50.3884066,1.52427302 50.4684067,1.36427283 50.5884068,1.44427293 C50.708407,1.48427297 50.8684072,1.48427297 50.9884073,1.64427316 C51.2684076,1.56427307 51.7484082,1.80427335 52.1084086,1.88427344 C52.5084091,2.00427358 52.8684095,2.12427372 53.26841,2.28427391 C54.0284108,2.52427418 54.7884117,2.84427456 55.5484126,3.16427493 C57.0684144,3.84427572 58.5884161,4.56427656 60.1084179,5.48427763 C64.5484231,7.96428051 69.5484289,12.5242858 72.7884327,17.2442913 C75.9884364,21.9242968 77.8284385,26.7243023 78.8684397,31.2843077 C78.8684397,31.3643077 78.8284397,31.4443078 78.7084396,31.5243079 C79.06844,31.604308 78.9884399,32.3243089 79.10844,32.7243093 L78.7484396,33.0843097 C78.9884399,33.2043099 79.10844,33.0043097 79.10844,32.8043094 C79.2684402,33.8443106 79.5484405,35.004312 79.5084405,36.0843132 C78.9484398,35.9243131 78.4284392,35.5243126 77.8684386,35.4443125 C76.9084375,28.4043043 74.4284346,21.0842958 68.0684272,14.0442876 C64.5484231,10.1642831 60.5084184,7.40427986 56.708414,5.52427768 C54.7884117,4.60427195 52.8684095,3.84427572 50.9084072,3.28427507 C49.9484061,2.9642747 48.9484049,2.76427446 47.9884038,2.52427418 C47.5084033,2.44427409 47.0284027,2.32427395 46.5084021,2.24427386 C46.2684018,2.24427386 46.0284015,2.12427372 45.7884013,2.16427377 C45.6684011,2.12427372 45.548401,2.08427367 45.4284008,2.12427372 C45.3484007,2.04427363 45.0684004,2.12427372 45.1884006,2.00427358 C45.2684006,2.04427363 45.2284006,1.92427349 45.2684006,1.88427344 C45.4684009,1.48427297 46.0684016,1.32427279 46.2284018,0.96427237 C46.3484019,0.804272183 46.468402,0.96427237 46.5884022,0.84427223 C46.7084023,0.72427209 46.9084026,0.644271997 46.7484024,0.604271951 Z M50.2902245,1.72548524 L50.1993154,1.60427311 C50.1538608,1.66487917 50.1084063,1.72548524 50.1084063,1.7860913 C50.1993154,1.72548524 50.2447699,1.84669736 50.2902245,1.72548524 Z M77.9884387,32.484309 C78.0284388,32.404309 78.0284388,32.2843088 77.9884387,32.2043087 C77.9084386,32.3243089 77.7084384,32.404309 77.7084384,32.5243091 C77.7884385,32.484309 77.8684386,32.5643091 77.9884387,32.484309 Z M78.3484391,32.6843093 C78.3884392,32.6043092 78.3484391,32.5243091 78.3484391,32.444309 C78.268439,32.5643091 78.0684388,32.6443092 78.0684388,32.7643094 C78.1484389,32.7643094 78.228439,32.7643094 78.3484391,32.6843093 Z M78.7084396,32.8843095 C78.7884397,32.7643094 78.7884397,32.6843093 78.7084396,32.5643091 C78.6284395,32.6843093 78.4284392,32.8043094 78.3884392,32.9243096 C78.5084393,32.8843095 78.5884394,32.9243096 78.7084396,32.8843095 Z M26.1483784,2.40427405 C26.2683785,3.00427474 26.3083786,3.60427544 25.9883782,4.20427614 C22.9883747,5.44427758 19.9883712,7.0042794 16.9483677,9.28428205 C13.9083642,11.5642847 11.0683609,14.4842881 8.98835843,17.3642915 C4.78835354,23.2042982 2.74835117,29.0843051 1.98835028,35.004312 C1.2283494,40.9243189 1.78835005,46.8843258 3.94835257,52.8843328 C4.98835378,55.8843363 6.54835559,58.8843398 8.62835801,61.9243433 C10.7883605,64.9643468 13.788364,68.0843505 16.6283673,70.2043529 C16.388367,70.6043534 16.4283671,71.1643541 16.348367,71.6443546 C16.3083669,71.7243547 16.0683667,71.8043548 16.1483668,71.8443548 C16.2283669,71.964355 16.1083667,71.8843549 16.0683667,71.8043548 C16.0283666,71.8443548 15.9883666,71.7243547 15.9483665,71.7243547 C15.8683664,71.6843547 15.7483663,71.6043546 15.6683662,71.5243545 C15.468366,71.3643543 15.2683657,71.2443541 15.0683655,71.0443539 C14.668365,70.7643536 14.3083646,70.4043532 13.9083642,70.1243528 C13.1483633,69.4443521 12.2683622,68.6443511 11.5883615,68.0043504 C7.02835615,63.3243449 4.0683527,58.3243391 2.4283508,53.5243335 C2.74835117,53.2843333 2.82835126,53.044333 2.82835126,52.8043327 C2.98835145,52.5243324 3.30835182,52.4843323 3.38835191,52.204332 C3.14835163,51.9243317 3.14835163,51.6043313 3.18835168,51.2843309 C3.06835154,51.2043308 2.9483514,51.4443311 2.86835131,51.5243312 C2.90835136,51.2843309 3.22835173,51.2043308 3.14835163,50.8843305 C2.66835108,51.4043311 2.22835056,51.5243312 1.74835001,51.6843314 C1.46834968,50.8843305 1.26834945,50.0443295 1.06834921,49.2443285 C1.06834921,49.1243284 1.30834949,49.1643285 1.30834949,49.0043283 L1.30834949,48.2843274 C1.38834959,47.9643271 1.58834982,47.6443267 1.30834949,47.3643264 C1.06834921,47.6443267 1.06834921,47.924327 0.908349028,48.2043273 C0.548348609,47.1643261 0.428348469,45.9243247 0.30834833,44.8043234 C0.148348143,43.644322 0.0683480503,42.4843207 0.0283480038,41.3643194 C-0.0516520893,39.0843167 0.0283480038,36.764314 0.388348423,34.4843114 C0.468348516,34.4843114 0.508348562,34.6043115 0.588348655,34.6043115 C0.668348749,34.4443113 0.468348516,34.5243114 0.388348423,34.4043113 C0.428348469,33.3643101 0.708348795,32.3243089 0.908349028,31.2843077 C1.8283501,30.6443069 1.90835019,29.8043059 1.46834968,29.0843051 C3.22835173,23.0442981 6.34835536,16.8442908 12.1883622,11.2042843 C16.7483675,6.80427917 21.508373,4.12427605 26.1483784,2.40427405 L26.1483784,2.40427405 Z M24.5883766,3.64427549 C24.5483765,3.56427539 24.6283766,3.44427526 24.5483765,3.36427516 C24.5083765,3.40427521 24.4683764,3.44427526 24.3883763,3.4842753 C24.4683764,3.56427539 24.5483765,3.68427553 24.5883766,3.64427549 Z M24.8556296,3.32427512 C24.8065453,3.24427502 24.9537981,3.20427498 24.8556296,3.12427488 L24.7083767,3.24427502 C24.757461,3.28427507 24.8065453,3.40427521 24.8556296,3.32427512 Z M2.54835094,50.8843305 C2.58835098,50.7643303 2.82835126,50.6843302 2.74835117,50.5643301 C2.62835103,50.6043301 2.50835089,50.7243303 2.4283508,50.8043304 C2.46835084,50.8443304 2.50835089,50.8443304 2.54835094,50.8843305 Z M15.2283657,70.8043536 C15.1883656,70.7243535 15.2683657,70.6843535 15.3483658,70.6043534 C15.0283655,70.4043532 14.2283645,69.8843526 14.0683643,69.3243519 C13.9883642,69.404352 13.9083642,69.2443518 13.8283641,69.404352 C14.3083646,69.8443525 14.7883652,70.4443532 15.2283657,70.8043536 L15.2283657,70.8043536 Z M76.4284369,51.1643308 L76.468437,51.1243307 C76.5884371,51.364331 76.7884373,51.4843312 76.9484375,51.6843314 C76.7084372,51.7643315 76.5884371,51.5243312 76.4284369,51.6443313 C76.3884369,52.244332 77.1884378,52.6043325 77.6284383,52.8043327 C76.9884376,54.6043348 76.2684367,56.4043369 75.3084356,58.204339 C75.0684353,57.8443386 75.2284355,57.1243307 74.748435,57.0843377 C74.6284348,57.364338 74.7084349,57.6443383 74.788435,57.9243387 C74.7084349,58.3643392 74.828435,58.7643396 74.748435,59.2043401 C74.3884345,59.2843402 74.0684342,59.5643406 73.7084337,59.5643406 C73.5884336,59.8443409 73.7484338,60.1643413 73.6684337,60.4843416 C73.5084335,60.6443418 73.1884331,60.4443416 73.108433,60.2443413 L72.8684328,60.4843416 C72.9484329,60.804342 72.7484326,61.1243424 72.8284327,61.4443427 C72.9884329,61.644343 73.1884331,61.6043429 73.3484333,61.7243431 C71.5484312,64.5243463 69.0284283,67.4843498 66.0684249,70.0843528 C62.2284204,73.4043567 58.2284157,75.6443593 54.3484112,77.124361 C54.2284111,77.0443609 54.3084112,76.8443607 54.148411,76.8043606 C53.8684107,76.7643606 53.6684104,77.164361 53.5484103,77.3643613 C53.1084098,77.6043616 52.6284092,77.7243617 52.1884087,77.8443618 C52.1884087,77.2043611 53.0284097,76.6843605 53.0684097,76.0443597 C52.6284092,75.8443595 52.2684088,76.7643606 52.0684086,76.9643608 C51.8284083,76.6843605 52.1084086,76.4443602 52.1484087,76.2043599 C55.4284125,75.0443586 58.7484163,73.5243568 62.0684202,71.124354 C62.1884203,71.2443541 62.3484205,71.4443544 62.4284206,71.4843544 C62.3884206,71.3243542 62.3484205,71.084354 62.2284204,71.0443539 C62.2684204,70.9643538 62.3084205,71.0443539 62.3484205,71.084354 C62.4284206,71.0443539 62.2684204,70.9643538 62.3884206,70.8843537 C63.1884215,70.3243531 63.9884224,69.6043522 64.8684235,68.9243515 C68.3484275,65.924348 70.9084305,62.6043441 72.9884329,59.2843402 C74.3484345,56.524337 75.668436,53.8443339 76.4284369,51.1643308 L76.4284369,51.1643308 Z M72.9484329,60.0843412 C72.9084328,59.964341 73.0284329,59.8843409 73.0284329,59.7643408 C72.9484329,59.8443409 72.8684328,59.924341 72.7484326,60.0043411 C72.8284327,60.0843412 72.8684328,60.1243412 72.9484329,60.0843412 Z M62.4284206,71.7643548 C62.3484205,71.6443546 62.3484205,71.4843544 62.2684204,71.3643543 C62.1884203,71.3643543 62.0684202,71.3243542 61.9884201,71.3643543 C62.1084202,71.4843544 62.2684204,71.7243547 62.4284206,71.7643548 Z M62.4284206,72.1243552 C62.3884206,72.0843551 62.3484205,71.9243549 62.3084205,71.8043548 C62.2284204,71.8043548 62.1484203,71.7643548 62.0684202,71.8043548 C62.1884203,71.8843549 62.3084205,72.2043553 62.4284206,72.1243552 Z M62.1884203,72.3643555 C62.2284204,72.2843554 62.3884206,72.2443553 62.3484205,72.1643552 C62.2684204,72.2043553 62.1884203,72.1643552 62.1084202,72.1643552 C62.1484203,72.2443553 62.1084202,72.2843554 62.1884203,72.3643555 Z" id="形状" fill="#FF0000" fill-rule="nonzero" opacity="0.2"></path>
                        <text transform="translate(39.562222, 39.290722) rotate(-33.000000) translate(-39.562222, -39.290722) " font-family="Alibaba-PuHuiTi-M, Alibaba PuHuiTi" font-size="18" font-weight="400" fill="#EA6464">
                            <tspan x="12.562222" y="45.790722">已接受</tspan>
                        </text>
                    </g>
                </g>
            </g>
        </g>
    </g>
</svg>